<?xml version="1.0" encoding="UTF-8"?>
<svg version="1.1" xmlns="http://www.w3.org/2000/svg" width="512" height="512">
<path d="M0 0 C3.42779723 1.60377768 6.71541199 3.43999691 10.00927734 5.30029297 C13.74686026 7.37205897 17.55610762 9.30054237 21.35839844 11.25024414 C31.19498401 16.30403327 40.93970034 21.51502852 50.63037109 26.84228516 C58.24311264 31.01876691 65.90713049 35.09397013 73.58129883 39.15597534 C79.53939148 42.31123796 85.49154697 45.47768104 91.44140625 48.6484375 C92.45541504 49.18871582 93.46942383 49.72899414 94.51416016 50.28564453 C97.01658377 51.62531681 99.51186208 52.9770803 102.00390625 54.3359375 C102.6803418 54.69703613 103.35677734 55.05813477 104.05371094 55.43017578 C109.87518456 58.6384479 116.07809949 62.54285637 118.81640625 68.8359375 C119.11289062 69.48949219 119.409375 70.14304687 119.71484375 70.81640625 C121.47259011 75.24857314 121.6189382 79.18950359 121.64453125 83.89453125 C121.65023132 84.70205338 121.6559314 85.5095755 121.6618042 86.34156799 C121.67124459 88.04874362 121.67778437 89.75593739 121.68164062 91.46313477 C121.69135715 94.07275125 121.72239315 96.68158357 121.75390625 99.29101562 C121.76043558 100.95051616 121.76568632 102.61002232 121.76953125 104.26953125 C121.78187805 105.04880478 121.79422485 105.82807831 121.8069458 106.63096619 C121.79369469 109.85767904 121.66192439 112.23399989 120.13183594 115.10961914 C117.38891035 117.6065371 115.07098935 117.6484375 111.44140625 117.6484375 C108.63951179 115.88202578 106.92615714 114.61793928 105.44140625 111.6484375 C105.35612997 109.61611116 105.3342449 107.58096744 105.34375 105.546875 C105.34697266 104.33515625 105.35019531 103.1234375 105.35351562 101.875 C105.36189453 100.60398437 105.37027344 99.33296875 105.37890625 98.0234375 C105.38341797 96.7446875 105.38792969 95.4659375 105.39257812 94.1484375 C105.40439422 90.98172458 105.4208681 87.81510394 105.44140625 84.6484375 C98.66705196 88.02273986 91.89439342 91.40042853 85.12280273 94.78027344 C82.82792754 95.92522549 80.53269122 97.06945406 78.23706055 98.21289062 C66.42473251 104.09711783 54.63977338 110.01475128 42.98216248 116.20068359 C35.61558838 120.10472155 28.16413891 123.82774701 20.69140625 127.5234375 C11.31645349 132.08790368 11.31645349 132.08790368 2.17578125 137.09375 C-0.55859375 138.6484375 -0.55859375 138.6484375 -2.55859375 138.6484375 C-2.55859375 182.2084375 -2.55859375 225.7684375 -2.55859375 270.6484375 C17.13552669 260.4925172 17.13552669 260.4925172 36.44140625 249.6484375 C37.10140625 249.6484375 37.76140625 249.6484375 38.44140625 249.6484375 C38.17585938 248.895625 37.9103125 248.1428125 37.63671875 247.3671875 C30.22378302 225.07427129 30.7829637 202.54098581 41.25390625 181.2734375 C44.387299 175.19508876 47.80939698 169.71498656 52.44140625 164.6484375 C53.24191406 163.75640625 54.04242188 162.864375 54.8671875 161.9453125 C69.55111397 146.39012555 89.35795821 137.77744468 110.66796875 136.6484375 C133.87831962 136.6484375 154.56172129 144.46217475 171.453125 160.56640625 C174.05424845 163.3130471 175.30609062 165.03336646 176.12890625 168.7734375 C175.18321732 172.72813668 173.690874 174.24665699 170.44140625 176.6484375 C166.66882488 177.16593837 164.97693075 177.00024192 161.765625 174.890625 C160.89550781 174.10945312 160.02539062 173.32828125 159.12890625 172.5234375 C144.58079111 159.99753 128.7161157 152.81436381 109.25390625 153.7109375 C90.20256845 155.78410713 74.88738842 164.20299846 62.69140625 178.9609375 C52.25228202 193.11776871 47.809382 209.87737554 50.12890625 227.3359375 C53.28968323 244.60508327 61.85679611 260.20750688 76.4296875 270.36474609 C91.12266863 280.02839471 108.13935881 284.09663281 125.5859375 281 C139.40778517 278.08943785 150.50084914 271.6980318 160.44140625 261.6484375 C161.26705078 260.87306641 161.26705078 260.87306641 162.109375 260.08203125 C174.15823079 247.71014983 177.84040346 229.76353495 177.64453125 213.1796875 C177.47332166 210.20327468 177.0806273 207.54723062 176.44140625 204.6484375 C175.99653873 200.73214478 175.79941009 197.61143174 178.06640625 194.2109375 C181.03069107 192.26075012 182.88191481 191.6484375 186.44140625 191.6484375 C189.75797039 193.53284894 191.14111985 194.97279311 192.69140625 198.4609375 C196.73352623 215.63994741 194.25928369 231.97439208 189.44140625 248.6484375 C191.6428374 249.85115622 193.84452465 251.05340029 196.04663086 252.25488281 C197.99905553 253.32124885 199.95036721 254.38965487 201.90063477 255.45996094 C207.23887621 258.38351566 212.59482749 261.26047984 218 264.05859375 C219.06605469 264.61716064 220.13210938 265.17572754 221.23046875 265.7512207 C223.28200415 266.82455425 225.34036087 267.88498006 227.40625 268.93041992 C235.26463495 273.0711535 241.29655489 277.93477113 244.79620266 286.32345772 C246.24240708 291.5348299 245.87346195 297.04428396 245.86132812 302.41137695 C245.86867617 303.80504025 245.87726454 305.19869748 245.88699341 306.59234619 C245.90914331 310.36319828 245.91214331 314.13383141 245.9102459 317.90473962 C245.91012587 321.0605347 245.91870332 324.21628394 245.92702341 327.3720662 C245.9462348 334.82253837 245.94914992 342.27289852 245.94238281 349.72338867 C245.93574675 357.39032738 245.95859372 365.05678442 245.99569654 372.72362548 C246.0264641 379.32262247 246.03774587 385.92146509 246.03385973 392.52053231 C246.03179913 396.4545282 246.03716368 400.38814931 246.06175232 404.3220768 C246.08413371 408.02497856 246.08204864 411.72710155 246.0618248 415.43000793 C246.05682855 417.42237593 246.07635186 419.4147592 246.09683228 421.4070282 C246.01735421 429.96445245 244.68330691 437.05767534 238.71564579 443.51612759 C234.91932773 447.0373311 230.55554162 449.45876193 225.9453125 451.75 C225.2432518 452.108591 224.5411911 452.46718201 223.81785583 452.8366394 C221.55110869 453.99150712 219.27773227 455.13258061 217.00390625 456.2734375 C215.42342095 457.07536989 213.84334605 457.87811162 212.26367188 458.68164062 C207.66315224 461.01772177 203.05402916 463.33636109 198.44140625 465.6484375 C197.81256531 465.96373413 197.18372437 466.27903076 196.53582764 466.60388184 C191.86681138 468.9436205 187.19477647 471.27724311 182.51782227 473.60107422 C176.78219982 476.45575648 171.09619661 479.3871619 165.44140625 482.3984375 C156.51456191 487.14830917 147.48296432 491.68465142 138.44140625 496.2109375 C137.35980225 496.75361267 137.35980225 496.75361267 136.25634766 497.30725098 C134.19418648 498.34127348 132.13057668 499.3723391 130.06640625 500.40234375 C129.13018433 500.87194267 129.13018433 500.87194267 128.17504883 501.35102844 C121.02931866 504.9047186 114.37801252 506.30978239 106.44140625 504.6484375 C98.42152245 501.83260149 90.935313 497.61514994 83.44140625 493.6484375 C81.61922744 492.70040336 79.79632947 491.75375 77.97265625 490.80859375 C75.21473451 489.3752963 72.45952325 487.93753393 69.71020508 486.48779297 C61.26619647 482.03909673 52.73659137 477.7731282 44.19140625 473.5234375 C35.43796168 469.16870816 26.70184312 464.79693152 18.06640625 460.2109375 C16.61719626 459.44529592 15.16797775 458.67967047 13.71875 457.9140625 C11.48000585 456.73046629 9.24391519 455.54252672 7.01220703 454.34570312 C4.55899445 453.03515478 2.09537775 451.74632064 -0.37109375 450.4609375 C-1.1069873 450.06140869 -1.84288086 449.66187988 -2.60107422 449.25024414 C-3.29475098 448.89309326 -3.98842773 448.53594238 -4.703125 448.16796875 C-5.30487549 447.84932861 -5.90662598 447.53068848 -6.52661133 447.20239258 C-12.26337413 445.63844751 -17.5115195 448.85021198 -22.4765625 451.39453125 C-23.58515373 451.95129295 -23.58515373 451.95129295 -24.71614075 452.51930237 C-27.06330723 453.70072558 -29.40457015 454.89337672 -31.74609375 456.0859375 C-33.33103188 456.88415555 -34.91631512 457.68168877 -36.50195312 458.47851562 C-38.01463578 459.2415676 -39.52701627 460.00521894 -41.0390625 460.76953125 C-41.74846481 461.12792587 -42.45786713 461.4863205 -43.18876648 461.85557556 C-46.09193915 463.33534385 -48.84385062 464.83860875 -51.55859375 466.6484375 C-53.71484375 466.94921875 -53.71484375 466.94921875 -56.05859375 466.9609375 C-56.83203125 466.97769531 -57.60546875 466.99445313 -58.40234375 467.01171875 C-61.0727857 466.56180733 -61.91372249 465.75893385 -63.55859375 463.6484375 C-64.5135237 460.85710381 -64.62948089 459.05350686 -64.12109375 456.1484375 C-59.41266828 448.61495676 -47.22363224 444.88537247 -39.37109375 441.0234375 C-37.33559171 440.01957533 -35.30072013 439.01448335 -33.26701355 438.00698853 C-31.43039292 437.0975168 -29.59183869 436.1919529 -27.75317383 435.28662109 C-26.17185669 434.47572021 -26.17185669 434.47572021 -24.55859375 433.6484375 C-23.2408633 433.02145226 -23.2408633 433.02145226 -21.89651203 432.38180065 C-19.34193516 430.86979313 -19.34193516 430.86979313 -18.94335461 428.21780109 C-18.95026805 426.76182908 -18.95026805 426.76182908 -18.95732117 425.27644348 C-18.95044785 424.16165115 -18.94357452 423.04685883 -18.93649292 421.89828491 C-18.96345749 420.06301743 -18.96345749 420.06301743 -18.9909668 418.19067383 C-18.99023666 416.90276443 -18.98950653 415.61485504 -18.98875427 414.28791809 C-18.98731797 410.75480275 -19.01674073 407.22253386 -19.05162406 403.68961549 C-19.08285278 399.99809181 -19.08581551 396.30654933 -19.0917511 392.61491394 C-19.10729993 385.62371447 -19.14834201 378.63290532 -19.19849855 371.64187783 C-19.25436005 363.68312733 -19.2818704 355.72435831 -19.30697572 347.76546061 C-19.35925732 331.39289097 -19.44721927 315.02071402 -19.55859375 298.6484375 C-20.09357483 298.93091087 -20.62855591 299.21338425 -21.17974854 299.50441742 C-23.64418283 300.805116 -26.10919678 302.1047124 -28.57421875 303.40429688 C-29.41549316 303.8485199 -30.25676758 304.29274292 -31.12353516 304.75042725 C-37.94295094 308.34415374 -44.81443292 311.8216686 -51.72332764 315.23995972 C-61.22938986 319.94556959 -70.69101546 324.71703884 -80.04736328 329.71508789 C-89.50429906 334.73345528 -99.11648029 339.45147327 -108.70849609 344.20483398 C-109.38698608 344.54196411 -110.06547607 344.87909424 -110.76452637 345.22644043 C-112.0415498 345.86088469 -113.31941019 346.4936483 -114.5982666 347.12438965 C-117.25652717 348.4460389 -119.82683294 349.81266796 -122.35986328 351.36352539 C-124.55859375 352.6484375 -124.55859375 352.6484375 -126.55859375 352.6484375 C-126.55859375 396.5384375 -126.55859375 440.4284375 -126.55859375 485.6484375 C-111.5297656 477.8279633 -111.5297656 477.8279633 -96.55859375 469.8984375 C-92.24310434 467.77205536 -89.33099443 466.75361237 -84.55859375 467.6484375 C-82.18359375 468.7734375 -82.18359375 468.7734375 -80.55859375 470.6484375 C-79.50126068 473.89092557 -79.23183515 475.77464998 -80.43359375 478.98828125 C-83.68933169 483.06393849 -87.91601024 484.9576821 -92.49609375 487.3359375 C-93.46724121 487.85196533 -94.43838867 488.36799316 -95.43896484 488.8996582 C-98.46967092 490.50092952 -101.51147968 492.07863793 -104.55859375 493.6484375 C-105.52458496 494.14730469 -106.49057617 494.64617187 -107.48583984 495.16015625 C-110.21341625 496.56223859 -112.94620414 497.95312195 -115.68359375 499.3359375 C-116.51753662 499.75770264 -117.35147949 500.17946777 -118.21069336 500.61401367 C-118.98807861 501.00049072 -119.76546387 501.38696777 -120.56640625 501.78515625 C-121.2433252 502.12248779 -121.92024414 502.45981934 -122.61767578 502.80737305 C-129.39418903 505.74386212 -136.99119049 506.27912291 -143.96289062 503.79003906 C-149.87207338 501.2648811 -155.56825813 498.30853072 -161.26806641 495.34716797 C-164.69492666 493.57805581 -168.14359665 491.85980014 -171.6015625 490.15234375 C-182.46577035 484.7856902 -193.27659184 479.32853616 -203.96655273 473.62133789 C-209.05449367 470.92207087 -214.18664187 468.32158531 -219.34375 465.7578125 C-220.04138458 465.41076263 -220.73901917 465.06371277 -221.45779419 464.70614624 C-224.94104831 462.97489089 -228.42705114 461.2494719 -231.91699219 459.53173828 C-261.26091767 445.03017886 -261.26091767 445.03017886 -265.90206909 433.98327065 C-267.36723112 428.77263794 -266.99065731 423.25606783 -266.97851562 417.88549805 C-266.98586367 416.49183475 -266.99445204 415.09817752 -267.00418091 413.70452881 C-267.02633081 409.93367672 -267.02933081 406.16304359 -267.0274334 402.39213538 C-267.02731337 399.2363403 -267.03589082 396.08059106 -267.04421091 392.9248088 C-267.0634223 385.47433663 -267.06633742 378.02397648 -267.05957031 370.57348633 C-267.05293425 362.90654762 -267.07578122 355.24009058 -267.11288404 347.57324952 C-267.1436516 340.97425253 -267.15493337 334.37540991 -267.15104723 327.77634269 C-267.14898663 323.8423468 -267.15435118 319.90872569 -267.17893982 315.9747982 C-267.20132121 312.27189644 -267.19923614 308.56977345 -267.1790123 304.86686707 C-267.17401605 302.87449907 -267.19353936 300.8821158 -267.21401978 298.8898468 C-267.13479826 290.36004554 -265.75723943 283.43498413 -260.00049591 276.87217236 C-254.87094086 271.89218973 -248.02584982 268.91007543 -241.74609375 265.6484375 C-240.49622911 264.99056212 -239.24688901 264.33168933 -237.99804688 263.671875 C-235.43456583 262.31818595 -232.86911486 260.96834689 -230.30224609 259.62109375 C-224.69744416 256.67409627 -219.12927038 253.6592893 -213.55859375 250.6484375 C-205.15326441 246.11712464 -196.74077196 241.59934124 -188.32223511 237.09262085 C-183.06700012 234.27917732 -177.81273157 231.4639293 -172.55859375 228.6484375 C-171.94924988 228.32196228 -171.33990601 227.99548706 -170.71209717 227.65911865 C-166.47212176 225.3871543 -162.23379771 223.11213583 -157.99609375 220.8359375 C-156.88943359 220.24296875 -155.78277344 219.65 -154.64257812 219.0390625 C-153.62357422 218.49121094 -152.60457031 217.94335938 -151.5546875 217.37890625 C-150.65935303 216.89832764 -149.76401855 216.41774902 -148.84155273 215.92260742 C-146.39642397 214.59728093 -146.39642397 214.59728093 -143.55859375 212.6484375 C-143.10607959 210.18899935 -143.10607959 210.18899935 -143.18678284 207.2674408 C-143.18002533 206.1249588 -143.17326782 204.98247681 -143.16630554 203.80537415 C-143.17402481 202.54565292 -143.18174408 201.2859317 -143.18969727 199.98803711 C-143.18723019 198.6526051 -143.18339272 197.31717501 -143.17828369 195.98175049 C-143.16993114 193.10117601 -143.17076577 190.22079911 -143.1784687 187.34022331 C-143.19003944 182.77982805 -143.17789729 178.21968744 -143.16184998 173.65931702 C-143.12562546 162.32550613 -143.11941937 150.99170041 -143.12194824 139.65783691 C-143.12366191 130.86227215 -143.11644913 122.06691505 -143.08196968 113.27140814 C-143.06522398 108.74439903 -143.06692976 104.2178969 -143.0827924 99.69089019 C-143.08861757 96.86277292 -143.07779798 94.03489229 -143.06254578 91.20681763 C-143.05708369 89.28460332 -143.07137413 87.36236406 -143.08641052 85.44020081 C-143.00330434 75.35516496 -140.70829237 67.88262296 -133.55859375 60.6484375 C-130.6953125 58.69140625 -130.6953125 58.69140625 -127.24609375 56.8359375 C-126.25246826 56.2951355 -126.25246826 56.2951355 -125.23876953 55.7434082 C-122.68697434 54.36249846 -120.12319046 53.00543076 -117.55859375 51.6484375 C-115.75005266 50.68562067 -113.94152271 49.72278286 -112.13319397 48.75956726 C-107.31653423 46.19453144 -102.49770959 43.63362501 -97.67456055 41.08081055 C-89.94109574 36.98682651 -82.22873664 32.860306 -74.55859375 28.6484375 C-66.12892871 24.02535142 -57.66078757 19.4770752 -49.17333984 14.96118164 C-47.79184107 14.22609415 -46.41064276 13.49044161 -45.02978516 12.75415039 C-41.17650166 10.70036262 -37.31676288 8.6596895 -33.44683838 6.63742065 C-32.1740433 5.9707841 -30.90303618 5.30072404 -29.63372803 4.62747192 C-27.7675843 3.63963416 -25.89466332 2.66595741 -24.01953125 1.6953125 C-22.93978027 1.13038086 -21.8600293 0.56544922 -20.74755859 -0.01660156 C-13.66849466 -2.98003148 -7.11253656 -2.70135856 0 0 Z M-27.30859375 21.2109375 C-28.54573214 21.89557287 -29.78387181 22.5784017 -31.02294922 23.25952148 C-33.59505834 24.67520292 -36.1627021 26.09853258 -38.72753906 27.52734375 C-44.67262231 30.830293 -50.68149971 34.01310742 -56.68359375 37.2109375 C-59.00950135 38.45630919 -61.33502336 39.70240127 -63.66015625 40.94921875 C-64.80129883 41.56104004 -65.94244141 42.17286133 -67.11816406 42.80322266 C-83.64540721 51.66732312 -100.14684388 60.57196184 -116.55859375 69.6484375 C-113.84003784 72.88190449 -110.29521734 74.51809971 -106.59375 76.38671875 C-105.8969664 76.74408615 -105.2001828 77.10145355 -104.48228455 77.46965027 C-102.19809514 78.63913721 -99.90970334 79.80012774 -97.62109375 80.9609375 C-96.03300368 81.77174489 -94.44511484 82.58294654 -92.85742188 83.39453125 C-81.96883481 88.95204489 -71.0400304 94.42801622 -60.09399414 99.87133789 C-53.53940732 103.13644272 -47.02740132 106.46670214 -40.55859375 109.8984375 C-39.07559654 110.6798312 -37.59252447 111.46108284 -36.109375 112.2421875 C-33.70549345 113.50900501 -31.30702981 114.78414168 -28.91552734 116.07421875 C-26.20187062 117.53434425 -23.47550904 118.96803277 -20.74609375 120.3984375 C-19.91529297 120.85379883 -19.08449219 121.30916016 -18.22851562 121.77832031 C-17.05192383 122.38691895 -17.05192383 122.38691895 -15.8515625 123.0078125 C-15.16602295 123.37358398 -14.4804834 123.73935547 -13.77416992 124.11621094 C-8.3985209 125.40755142 -2.49697182 121.25714204 2.234375 118.8671875 C2.97326462 118.49769485 3.71215424 118.12820221 4.47343445 117.74751282 C6.86072248 116.55201523 9.24490158 115.35046745 11.62890625 114.1484375 C13.28199587 113.3184682 14.93515369 112.48863473 16.58837891 111.65893555 C25.23878628 107.31044181 33.859542 102.91596615 42.39648438 98.34790039 C49.73159018 94.44300585 57.18562912 90.77852559 64.62890625 87.0859375 C75.0747049 81.90309009 85.39180687 76.57224288 95.44140625 70.6484375 C92.19194547 67.92432991 89.03615329 65.75395415 85.2578125 63.8359375 C84.25967529 63.32434082 83.26153809 62.81274414 82.2331543 62.28564453 C81.16750244 61.74536621 80.10185059 61.20508789 79.00390625 60.6484375 C70.8252613 56.45010975 62.68554474 52.20169708 54.62890625 47.7734375 C45.07911253 42.52897192 35.48848053 37.36343659 25.86889648 32.24829102 C20.22334379 29.24169773 14.60722926 26.19639091 9.05078125 23.02734375 C8.05820312 22.46660156 7.065625 21.90585937 6.04296875 21.328125 C4.20148376 20.28377598 2.36748464 19.22606328 0.54296875 18.15234375 C-10.62455229 11.85092122 -16.7780042 15.24184874 -27.30859375 21.2109375 Z M-126.55859375 83.6484375 C-126.55859375 126.5484375 -126.55859375 169.4484375 -126.55859375 213.6484375 C-115.33859375 219.5884375 -104.11859375 225.5284375 -92.55859375 231.6484375 C-81.43359375 237.7109375 -81.43359375 237.7109375 -76.31640625 240.51953125 C-68.32467139 244.88402645 -60.26537037 249.12285487 -52.21618652 253.38012695 C-43.24770207 258.12500402 -34.31272359 262.91457848 -25.50683594 267.95751953 C-22.23975485 269.9748759 -22.23975485 269.9748759 -18.55859375 270.6484375 C-18.55859375 227.0884375 -18.55859375 183.5284375 -18.55859375 138.6484375 C-39.24352522 127.88692055 -39.24352522 127.88692055 -60.05859375 117.3984375 C-68.41127167 113.24745859 -76.71164246 109.02537752 -84.94116211 104.63598633 C-98.00943834 97.71049346 -111.31630723 91.23288132 -124.55859375 84.6484375 C-125.21859375 84.3184375 -125.87859375 83.9884375 -126.55859375 83.6484375 Z M-143.61328125 231.1640625 C-144.30222473 231.53082596 -144.99116821 231.89758942 -145.70098877 232.27546692 C-147.94954744 233.47517386 -150.19154028 234.6866235 -152.43359375 235.8984375 C-153.9942828 236.73428915 -155.55532031 237.56949046 -157.11669922 238.40405273 C-166.17013998 243.25081389 -175.19711171 248.14702638 -184.19726562 253.09204102 C-192.39870559 257.59002789 -200.66636168 261.96057636 -208.93359375 266.3359375 C-219.56015448 271.96036495 -230.14453161 277.63637202 -240.55859375 283.6484375 C-240.55859375 284.3084375 -240.55859375 284.9684375 -240.55859375 285.6484375 C-239.79502815 286.02855484 -239.79502815 286.02855484 -239.01603699 286.41635132 C-233.61055988 289.10783558 -228.20661593 291.80238065 -222.8034668 294.49853516 C-220.79960924 295.49798371 -218.79539024 296.49670799 -216.79077148 297.49462891 C-205.9027074 302.91546001 -195.05738876 308.39670134 -184.31147766 314.09461975 C-176.58486393 318.18412168 -168.76822391 322.08350781 -160.93359375 325.9609375 C-158.21100673 327.30873058 -155.48979924 328.65925194 -152.76953125 330.01171875 C-152.13094177 330.32722687 -151.49235229 330.64273499 -150.83441162 330.96780396 C-146.58144634 333.08479056 -142.48290879 335.37259587 -138.47509766 337.92260742 C-135.24594628 339.14557138 -132.87326822 338.21523602 -129.78207397 336.88252258 C-127.64336229 335.87358829 -125.53386303 334.81754456 -123.42578125 333.74609375 C-122.24860031 333.15637032 -122.24860031 333.15637032 -121.04763794 332.55473328 C-118.50653297 331.27950924 -115.96999842 329.99548142 -113.43359375 328.7109375 C-111.68115563 327.82877162 -109.92855107 326.94693633 -108.17578125 326.06542969 C-99.23840695 321.56287222 -90.32495789 317.02141058 -81.50219727 312.29736328 C-74.2020422 308.40719886 -66.78051131 304.76175702 -59.37109375 301.0859375 C-48.9252996 295.90308118 -38.60819363 290.57224318 -28.55859375 284.6484375 C-31.76178686 282.0892752 -35.11526227 280.18900433 -38.73828125 278.27734375 C-39.33825928 277.95930786 -39.9382373 277.64127197 -40.55639648 277.31359863 C-41.84361485 276.63161933 -43.13162457 275.95113197 -44.42034912 275.27200317 C-47.84514522 273.46698975 -51.26407277 271.65091868 -54.68359375 269.8359375 C-55.36638397 269.47387711 -56.04917419 269.11181671 -56.75265503 268.73878479 C-62.33769715 265.77419611 -67.89184559 262.75568948 -73.43359375 259.7109375 C-83.24873023 254.32421691 -93.13727929 249.07958718 -103.03668213 243.84991455 C-111.49454892 239.3810214 -119.93996613 234.90660634 -128.14599609 229.98364258 C-134.22597252 226.42452208 -137.83265878 228.01693077 -143.61328125 231.1640625 Z M39.86328125 265.9921875 C38.95594238 266.49331055 38.04860352 266.99443359 37.11376953 267.51074219 C36.14938965 268.05118164 35.18500977 268.59162109 34.19140625 269.1484375 C32.20474446 270.24796948 30.21776368 271.34692527 28.23046875 272.4453125 C27.25110352 272.98865234 26.27173828 273.53199219 25.26269531 274.09179688 C21.38388223 276.23192427 17.47981089 278.32241223 13.56640625 280.3984375 C12.93702148 280.73294922 12.30763672 281.06746094 11.65917969 281.41210938 C10.25378471 282.15854988 8.84769159 282.90367579 7.44140625 283.6484375 C9.5154286 285.89077298 11.44692447 287.34414563 14.16479492 288.72631836 C15.28081841 289.29917572 15.28081841 289.29917572 16.41938782 289.88360596 C17.22458359 290.2893988 18.02977936 290.69519165 18.859375 291.11328125 C19.70054367 291.54284119 20.54171234 291.97240112 21.40837097 292.41497803 C24.14571036 293.81095589 26.887214 295.19853102 29.62890625 296.5859375 C31.51210321 297.54424219 33.39507796 298.50298368 35.27783203 299.4621582 C46.03902919 304.93835206 56.82384983 310.36628501 67.63793945 315.73730469 C73.57381629 318.6916054 79.45753441 321.73193111 85.31640625 324.8359375 C87.58817508 326.0345513 89.86034113 327.23240622 92.1328125 328.4296875 C93.73065908 329.27322072 95.32691179 330.11977746 96.921875 330.96875 C99.37961742 332.27192505 101.8466133 333.55577909 104.31640625 334.8359375 C105.06003418 335.23514404 105.80366211 335.63435059 106.56982422 336.0456543 C107.26736816 336.40312744 107.96491211 336.76060059 108.68359375 337.12890625 C109.29058105 337.44754639 109.89756836 337.76618652 110.52294922 338.09448242 C115.63874385 339.57166975 120.26158141 336.40079914 124.671875 334.0703125 C125.37129715 333.70738098 126.0707193 333.34444946 126.79133606 332.97052002 C128.29270993 332.1907172 129.7926432 331.40813561 131.29125977 330.62304688 C135.24518954 328.5517245 139.20924393 326.49992412 143.171875 324.4453125 C143.96439667 324.03365845 144.75691833 323.62200439 145.57345581 323.19787598 C152.49355659 319.60788343 159.45717401 316.11217537 166.44140625 312.6484375 C174.49329501 308.64810463 182.48536151 304.55842159 190.4230957 300.33642578 C200.00291979 295.25793967 209.72614174 290.46120034 219.44140625 285.6484375 C219.44140625 284.9884375 219.44140625 284.3284375 219.44140625 283.6484375 C218.71139404 283.25575684 217.98138184 282.86307617 217.22924805 282.45849609 C214.46511452 280.97144426 211.70113636 279.48410409 208.93725586 277.99658203 C207.17508334 277.04828722 205.41273928 276.10031119 203.65039062 275.15234375 C201.94399414 274.23388672 201.94399414 274.23388672 200.203125 273.296875 C199.07052246 272.69198242 197.93791992 272.08708984 196.77099609 271.46386719 C194.584455 270.27167482 192.41686606 269.04390986 190.27197266 267.77832031 C189.30308105 267.21209961 188.33418945 266.64587891 187.3359375 266.0625 C186.48491455 265.54896973 185.6338916 265.03543945 184.75708008 264.50634766 C182.47387884 263.38683397 182.47387884 263.38683397 180.26318359 264.36621094 C177.86122455 266.05678838 176.15553049 268.035825 174.25390625 270.2734375 C160.97548822 285.30356865 143.81114846 295.83555562 123.44140625 297.6484375 C98.24042831 299.11381676 77.36347744 292.79449462 58.19140625 276.2109375 C54.46476063 272.80605877 51.45324575 269.30537381 48.6953125 265.08203125 C48.28152344 264.60894531 47.86773437 264.13585937 47.44140625 263.6484375 C44.03561957 263.6484375 42.80141601 264.3543088 39.86328125 265.9921875 Z M-251.55859375 297.6484375 C-251.60535587 313.95589273 -251.64060322 330.26332614 -251.66221809 346.57083225 C-251.6725219 354.14302883 -251.68656509 361.71518371 -251.70947266 369.28735352 C-251.72943398 375.8887912 -251.7423167 382.49019866 -251.74677074 389.09166569 C-251.74937348 392.58569546 -251.75547233 396.0796388 -251.77005386 399.57364082 C-251.78621607 403.47822795 -251.78657167 407.38273124 -251.78564453 411.28735352 C-251.79283508 412.44037964 -251.80002563 413.59340576 -251.80743408 414.78137207 C-251.79288514 420.44258869 -251.6430773 425.3492523 -249.55859375 430.6484375 C-246.43528323 433.73965234 -242.9791844 435.61307127 -239.05078125 437.53125 C-237.99213867 438.05315918 -236.93349609 438.57506836 -235.84277344 439.11279297 C-234.71774414 439.66080566 -233.59271484 440.20881836 -232.43359375 440.7734375 C-230.06040665 441.94370927 -227.68801417 443.11559376 -225.31640625 444.2890625 C-224.1552832 444.86333984 -222.99416016 445.43761719 -221.79785156 446.02929688 C-217.59861885 448.12828024 -213.44869169 450.31070719 -209.30859375 452.5234375 C-200.48747035 457.22425775 -191.54474151 461.67361442 -182.59606934 466.12457275 C-173.08025048 470.85982973 -163.62614495 475.69556823 -154.24609375 480.6953125 C-148.6697936 484.13904109 -148.6697936 484.13904109 -142.55859375 485.6484375 C-142.55859375 441.7584375 -142.55859375 397.8684375 -142.55859375 352.6484375 C-151.79859375 348.0284375 -161.03859375 343.4084375 -170.55859375 338.6484375 C-179.80859375 333.7734375 -179.80859375 333.7734375 -184.26171875 331.40625 C-191.99804602 327.34082543 -199.84491243 323.49003892 -207.66964722 319.59854126 C-216.66332353 315.12416339 -225.62510984 310.607926 -234.46289062 305.83007812 C-238.35313924 303.74178961 -242.29026307 301.83400994 -246.31518555 300.01635742 C-247.29907761 299.57136398 -248.28296967 299.12637054 -249.29667664 298.66789246 C-250.04310928 298.33147232 -250.78954193 297.99505219 -251.55859375 297.6484375 Z M-2.55859375 297.6484375 C-2.55859375 341.5384375 -2.55859375 385.4284375 -2.55859375 430.6484375 C9.48381131 437.53214437 9.48381131 437.53214437 21.765625 443.890625 C22.67737991 444.34390167 23.58913483 444.79717834 24.52851868 445.26419067 C27.39338229 446.68787578 30.26089412 448.10610734 33.12890625 449.5234375 C36.90509363 451.39292689 40.67989039 453.26518298 44.453125 455.140625 C45.37931641 455.60097137 46.30550781 456.06131775 47.25976562 456.53561401 C54.11624037 459.95669416 60.90637686 463.49174807 67.67616272 467.08074951 C74.61485055 470.75574395 81.6098422 474.30951439 88.63720703 477.81152344 C90.6320792 478.80618255 92.62467616 479.80530877 94.6171875 480.8046875 C95.8944025 481.44296604 97.17174092 482.08099767 98.44921875 482.71875 C99.5798877 483.28352051 100.71055664 483.84829102 101.87548828 484.43017578 C104.1185584 485.71992067 104.1185584 485.71992067 105.44140625 485.6484375 C105.44140625 441.7584375 105.44140625 397.8684375 105.44140625 352.6484375 C89.80150252 344.53885779 74.18370536 336.49744981 58.41796875 328.65234375 C53.34571579 326.11621727 48.32052958 323.50345943 43.31640625 320.8359375 C30.5257323 314.01925558 17.50826267 307.63825993 4.53149414 301.18554688 C2.16676469 300.00925418 -0.19628811 298.82959032 -2.55859375 297.6484375 Z M224.76171875 299.921875 C223.78074219 300.41139648 222.79976563 300.90091797 221.7890625 301.40527344 C220.72558594 301.93926758 219.66210938 302.47326172 218.56640625 303.0234375 C217.46941406 303.57290039 216.37242187 304.12236328 215.2421875 304.68847656 C208.93778731 307.85718993 202.66877197 311.08124132 196.44140625 314.3984375 C187.15829848 319.34245624 177.74389551 324.01491172 168.32843018 328.69979858 C159.43094109 333.12888417 150.56215379 337.59621038 141.80078125 342.29101562 C135.07606183 345.88780281 128.27633126 349.23097499 121.44140625 352.6484375 C121.44140625 396.5384375 121.44140625 440.4284375 121.44140625 485.6484375 C125.19645963 484.39675304 128.29505819 483.34715294 131.734375 481.6171875 C132.51844727 481.22450684 133.30251953 480.83182617 134.11035156 480.42724609 C134.94147461 480.00523926 135.77259766 479.58323242 136.62890625 479.1484375 C137.51545898 478.70193848 138.40201172 478.25543945 139.31542969 477.79541016 C145.73569768 474.54875846 152.09820247 471.20034406 158.44995117 467.82226562 C166.38064954 463.63107005 174.41132451 459.64453321 182.44140625 455.6484375 C193.51070194 450.13808095 204.57102874 444.61564826 215.44482422 438.72509766 C216.90012848 437.94032243 218.36393519 437.17125436 219.83251953 436.41162109 C220.63286621 435.9883252 221.43321289 435.5650293 222.2578125 435.12890625 C222.98556885 434.75016357 223.7133252 434.3714209 224.46313477 433.98120117 C227.49817851 431.93648887 229.12345257 429.92197231 230.01520443 426.35014057 C230.44846367 423.60370037 230.56443172 421.04298052 230.56166077 418.26371765 C230.56303543 417.19666092 230.5644101 416.12960419 230.56582642 415.0302124 C230.56223114 413.86999573 230.55863586 412.70977905 230.55493164 411.5144043 C230.55507767 410.28472427 230.55522369 409.05504425 230.55537415 407.7881012 C230.55479765 404.42484398 230.54978895 401.06164846 230.54280019 397.69840217 C230.5365408 394.18035041 230.5359608 390.6622978 230.53477478 387.14424133 C230.53166909 380.4861981 230.52346597 373.82817132 230.51342529 367.17013532 C230.5022405 359.58854559 230.49674774 352.00695506 230.49172986 344.42535913 C230.48128272 328.8330424 230.46369803 313.24074207 230.44140625 297.6484375 C228.44181223 297.6484375 226.50024235 299.05372825 224.76171875 299.921875 Z " fill="#000000" transform="translate(266.55859375,4.3515625)"/>
<path d="M0 0 C3.25 0.75 3.25 0.75 5.6875 2.875 C7.6074161 6.40764562 8.10337686 7.79343454 7.25 11.75 C5.27135338 14.73582775 2.73636662 17.18444973 0.25 19.75 C-0.84125547 20.92456785 -1.92956034 22.10188081 -3.015625 23.28125 C-8.82402026 29.576801 -14.70616165 35.76481857 -20.80859375 41.77734375 C-22.707665 43.70698355 -24.48606814 45.69676724 -26.25 47.75 C-37.0121352 60.13143795 -37.0121352 60.13143795 -42.4375 62.0625 C-49.94431088 61.35431029 -54.21376671 55.40666082 -59.2265625 50.2734375 C-61.41323394 48.08676606 -63.64184821 46.05924921 -66 44.0625 C-73.70375599 37.36289957 -73.70375599 37.36289957 -75.75 33.75 C-75.81096016 30.09239051 -75.51878646 27.96387336 -73.5625 24.875 C-70.90800608 23.22738308 -68.86672513 22.87466901 -65.75 22.75 C-61.55029544 24.47295572 -58.76678475 27.6387892 -55.6484375 30.83203125 C-53.66347569 32.83741448 -51.64285166 34.78115545 -49.5625 36.6875 C-48.61310547 37.56728516 -48.61310547 37.56728516 -47.64453125 38.46484375 C-45.57984216 40.12425082 -45.57984216 40.12425082 -41.75 39.75 C-39.73145243 37.86342285 -37.97861929 36.02194963 -36.1875 33.9375 C-35.12186627 32.73773745 -34.0541145 31.53985318 -32.984375 30.34375 C-32.44619141 29.73917969 -31.90800781 29.13460937 -31.35351562 28.51171875 C-28.96912797 25.892087 -26.4633001 23.42143601 -23.9375 20.9375 C-20.84437013 17.8842529 -17.8739724 14.81397538 -15.0625 11.5 C-6.17628686 1.23525737 -6.17628686 1.23525737 0 0 Z " fill="#000000" transform="translate(413.75,194.25)"/>
</svg>
