<?xml version="1.0" encoding="UTF-8"?>
<svg version="1.1" xmlns="http://www.w3.org/2000/svg" width="512" height="512">
<path d="M0 0 C1.31438588 -0.00835666 2.62877177 -0.01671332 3.98298752 -0.02532321 C7.62540418 -0.0478285 11.26744026 -0.04539135 14.90990472 -0.03875387 C18.8405097 -0.0358788 22.77100845 -0.05593293 26.7015686 -0.07290649 C34.39975688 -0.1022633 42.09781409 -0.10955606 49.79605256 -0.10833099 C56.05348597 -0.10749863 62.31087792 -0.1133583 68.56830215 -0.12395668 C88.2441831 -0.15663629 107.91993645 -0.16561762 127.59584059 -0.15686695 C143.11631618 -0.15088485 158.63647591 -0.18128231 174.15687273 -0.22848966 C190.09482219 -0.2765888 206.03261954 -0.29866531 221.97064316 -0.29317886 C230.91801886 -0.29060215 239.86509199 -0.29859361 248.81240463 -0.3342495 C256.42964218 -0.36436585 264.04641968 -0.3701369 271.66368161 -0.34444048 C275.54948778 -0.33201586 279.43442918 -0.33082107 283.32016373 -0.36014938 C287.53474888 -0.39161501 291.74730603 -0.3687371 295.96191406 -0.34057617 C297.18740396 -0.35823758 298.41289387 -0.37589899 299.67551982 -0.3940956 C305.49762204 -0.30986586 309.22826007 0.00379298 313.72986889 3.89065361 C314.88070226 5.07962085 316.00877967 6.29122841 317.10794067 7.52812195 C318.16639257 8.55768819 319.23037628 9.58164265 320.30311584 10.59631348 C321.34333339 11.63073398 322.380979 12.66774605 323.41629028 13.70707703 C324.27882416 14.56698242 324.27882416 14.56698242 325.15878296 15.44425964 C327.02844595 17.30957775 328.89449435 19.17846183 330.76028442 21.0476532 C332.06910362 22.3557978 333.37807115 23.663794 334.68717957 24.97164917 C337.41442752 27.69743063 340.13987785 30.42499323 342.86404419 33.15385437 C346.36003269 36.65557366 349.86053764 40.15273844 353.3623724 43.64861012 C356.05868463 46.34131731 358.7526212 49.03639104 361.44583321 51.73219872 C362.73653282 53.023566 364.02797731 54.31418923 365.32017326 55.60405922 C367.11765912 57.39901586 368.91192609 59.19712844 370.70535278 60.99613953 C371.24088272 61.52964523 371.77641266 62.06315094 372.32817078 62.61282349 C377.07061616 67.38277099 377.07061616 67.38277099 377.17195129 70.49237061 C377.14526871 71.29573349 377.11858612 72.09909637 377.09109497 72.92680359 C376.94953034 78.04021508 376.882153 83.14998243 376.84158325 88.2651825 C376.81098919 90.47005952 376.75720214 92.67474484 376.67947388 94.87846375 C375.76159559 106.63560451 375.76159559 106.63560451 379.4447937 117.35722351 C382.18877557 119.82890959 385.11329866 121.40756715 388.48123169 122.87602234 C394.76897818 125.74032261 399.26711854 130.69403253 404.10794067 135.52812195 C404.98321411 136.39179382 405.85848755 137.2554657 406.76028442 138.14530945 C417.31554938 149.10717166 424.32675611 162.15507753 429.10794067 176.52812195 C429.52172974 177.73855164 429.9355188 178.94898132 430.36184692 180.1960907 C436.07244264 198.98176623 435.44614872 221.98738252 429.10794067 240.52812195 C428.89895142 241.15637878 428.68996216 241.78463562 428.47463989 242.43193054 C423.15934317 258.09115302 414.67745435 270.8343957 403.10794067 282.52812195 C402.21848755 283.50845398 402.21848755 283.50845398 401.31106567 284.5085907 C395.72718855 290.54857659 388.026113 296.43636891 380.45333958 299.65715313 C377.7333119 301.40433302 377.7333119 301.40433302 377.48825741 305.01959705 C377.46504071 306.5059681 377.46972618 307.99292124 377.49562073 309.47924805 C377.49008731 310.29837195 377.4845539 311.11749586 377.47885281 311.9614417 C377.46623553 314.71635173 377.48929677 317.46982628 377.51199341 320.22465515 C377.51009038 322.19563628 377.5059369 324.16661634 377.49969482 326.1375885 C377.49088819 330.38730612 377.49769068 334.63661611 377.51635551 338.88630104 C377.54538152 345.60508404 377.53767235 352.32351369 377.52445984 359.04232788 C377.5037689 372.09478637 377.51940927 385.14707506 377.53993225 398.19952393 C377.56505082 414.80303926 377.57795052 431.4064596 377.54997593 448.009978 C377.54001345 454.68957932 377.55017297 461.36875937 377.57588375 468.04831469 C377.58805045 472.20480764 377.58385387 476.36116888 377.57530594 480.51766586 C377.57477057 482.44539019 377.58111586 484.37313055 377.59484673 486.30080605 C377.6126849 488.93293357 377.60597244 491.56391323 377.59327698 494.19604492 C377.6100335 495.33988072 377.6100335 495.33988072 377.62712854 496.50682431 C377.56619638 501.68103592 376.47234484 504.61187887 373.10794067 508.52812195 C368.76294276 511.93202111 365.95377694 513.02837634 360.45181274 513.03148651 C359.80510526 513.03730027 359.15839777 513.04311404 358.49209309 513.04910398 C356.32785308 513.06368711 354.16475027 513.04982809 352.0005188 513.03605652 C350.43218659 513.04066614 348.86385871 513.04701947 347.29553986 513.0549655 C342.987964 513.07167369 338.68074232 513.06340575 334.37316513 513.05102062 C329.72687116 513.04197854 325.08063852 513.05593568 320.43435669 513.06694031 C311.333122 513.08473911 302.23201915 513.08087948 293.13077927 513.06928974 C285.73489041 513.06026105 278.33903854 513.05902898 270.94314575 513.06338501 C269.89105376 513.06399794 268.83896176 513.06461087 267.75498819 513.06524238 C265.61777177 513.06652126 263.48055536 513.06781812 261.34333897 513.06913275 C241.29642796 513.08054253 221.24959009 513.06741858 201.20269108 513.04593128 C183.99659181 513.02805995 166.79060049 513.03116394 149.58450317 513.04960632 C129.6099749 513.07100599 109.63551074 513.07944386 89.6609726 513.06715727 C87.53156027 513.06588305 85.40214794 513.06462557 83.2727356 513.06338501 C82.22498789 513.06276791 81.17724019 513.06215081 80.09774256 513.061515 C72.70960611 513.05805939 65.32151028 513.063895 57.93338013 513.07330322 C48.93131793 513.08451453 39.92939527 513.08150142 30.92734909 513.06018025 C26.33318144 513.04965815 21.73924656 513.04556772 17.14508057 513.05877686 C12.94068195 513.07068262 8.73673219 513.0641684 4.53237438 513.04286665 C3.01025429 513.03839285 1.4880964 513.0406843 -0.03399944 513.0503698 C-2.10185053 513.06252026 -4.16816089 513.05007533 -6.2359314 513.03148651 C-7.38475044 513.0308371 -8.53356949 513.03018769 -9.71720123 513.0295186 C-14.81990342 512.2236628 -17.90644031 509.65767328 -21.24264526 505.83427429 C-23.36858368 501.57295724 -23.40363767 498.31801303 -23.28268433 493.62968445 C-23.27702454 492.79472443 -23.27136475 491.9597644 -23.26553345 491.09950256 C-23.24326156 488.45010929 -23.19308456 485.80210179 -23.14205933 483.15312195 C-23.12198235 481.34975616 -23.10373368 479.54636902 -23.08737183 477.7429657 C-23.04342718 473.33748926 -22.97446533 468.93304001 -22.89205933 464.52812195 C-23.53463684 464.53700439 -24.17721436 464.54588684 -24.83926392 464.55503845 C-31.52246207 464.64347843 -38.20549423 464.70384248 -44.88912964 464.74784851 C-47.38398998 464.76797359 -49.8788031 464.79527647 -52.37350464 464.82987976 C-55.95793301 464.87835652 -59.54173817 464.90108215 -63.12643433 464.91874695 C-64.24322571 464.93939209 -65.36001709 464.96003723 -66.51065063 464.98130798 C-68.0718161 464.98176117 -68.0718161 464.98176117 -69.66452026 464.98222351 C-70.57941223 464.99110596 -71.4943042 464.9999884 -72.43692017 465.00914001 C-75.65939975 464.37778236 -76.84895323 463.03832394 -78.89205933 460.52812195 C-79.42330933 458.52812195 -79.42330933 458.52812195 -79.39205933 456.52812195 C-79.40237183 455.86812195 -79.41268433 455.20812195 -79.42330933 454.52812195 C-78.63808702 451.57199091 -77.26700808 450.42827634 -74.89205933 448.52812195 C-71.86764526 448.07402039 -71.86764526 448.07402039 -68.37643433 448.13749695 C-67.1260437 448.15038757 -65.87565308 448.1632782 -64.58737183 448.17655945 C-62.63444214 448.22683289 -62.63444214 448.22683289 -60.64205933 448.27812195 C-59.32463745 448.29616882 -58.00721558 448.3142157 -56.64987183 448.33280945 C-53.39653625 448.37995924 -50.14466308 448.44576151 -46.89205933 448.52812195 C-46.90094177 447.56425568 -46.90982422 446.6003894 -46.91897583 445.60731506 C-47.00013488 436.51467344 -47.06005981 427.42210551 -47.09930801 418.32918358 C-47.12016449 413.6546199 -47.14844657 408.98034911 -47.19381714 404.30595398 C-47.23734429 399.7931341 -47.26121103 395.28059558 -47.2715683 390.76758194 C-47.27894736 389.04760434 -47.29335711 387.32764178 -47.31497955 385.60778427 C-47.34410562 383.19466374 -47.3480116 380.78269915 -47.34616089 378.36943054 C-47.36773254 377.30775162 -47.36773254 377.30775162 -47.38973999 376.22462463 C-47.33787601 369.95649194 -44.83091279 366.46697541 -40.51705933 362.15312195 C-36.48238985 360.34447701 -34.04774146 360.36085105 -29.66549683 360.42655945 C-27.76549927 360.44855408 -27.76549927 360.44855408 -25.82711792 360.47099304 C-24.85854858 360.48984558 -23.88997925 360.50869812 -22.89205933 360.52812195 C-22.89357821 359.78981089 -22.89509709 359.05149983 -22.896662 358.29081571 C-22.98613769 314.55080465 -23.05478703 270.81080353 -23.09632064 227.07071932 C-23.10132358 221.82100572 -23.10650086 216.5712923 -23.11178589 211.32157898 C-23.11283513 210.27643767 -23.11388437 209.23129636 -23.11496541 208.15448411 C-23.13237958 191.22267591 -23.16392285 174.29092194 -23.20067051 157.35914592 C-23.23805175 139.99082974 -23.26028922 122.62254199 -23.26841331 105.25418723 C-23.27390692 94.5334635 -23.29126975 83.81289301 -23.32372519 73.09221645 C-23.34483831 65.74469496 -23.35126664 58.39725292 -23.34606484 51.04970329 C-23.34349806 46.80794666 -23.34748469 42.56645817 -23.36888123 38.32474899 C-23.38832381 34.44210499 -23.38934452 30.55990985 -23.37565491 26.67724533 C-23.37396259 25.27202446 -23.37905651 23.86677575 -23.39159206 22.46160977 C-23.48102705 11.8183049 -23.48102705 11.8183049 -21.2369957 6.90256691 C-14.48071552 0.06126595 -9.2817036 -0.05189302 0 0 Z M-6.89205933 16.52812195 C-6.89205933 130.04812195 -6.89205933 243.56812195 -6.89205933 360.52812195 C-4.25205933 360.52812195 -1.61205933 360.52812195 1.10794067 360.52812195 C1.11728638 359.89309753 1.12663208 359.25807312 1.13626099 358.60380554 C1.190228 355.70281395 1.27382194 352.80338951 1.35794067 349.90312195 C1.37921021 348.40458679 1.37921021 348.40458679 1.40090942 346.8757782 C1.59560064 340.99610355 1.96761592 337.05392522 6.10794067 332.52812195 C10.76459976 328.78087438 15.3003038 329.07626483 21.01028442 329.0945282 C21.96560562 329.08928635 22.92092682 329.08404449 23.90519714 329.0786438 C25.9215803 329.07223272 27.93800091 329.07354875 29.95437622 329.08207703 C33.03163579 329.09058379 36.10703636 329.0618178 39.18411255 329.03007507 C41.14700262 329.02846277 43.10989596 329.02904114 45.07278442 329.0320282 C45.98857773 329.02079422 46.90437103 329.00956024 47.84791565 328.99798584 C53.4317706 329.05859046 56.69573523 329.77018638 61.10794067 333.52812195 C64.06973493 337.40909373 64.25287765 339.39774379 65.10794067 344.52812195 C75.66794067 344.52812195 86.22794067 344.52812195 97.10794067 344.52812195 C97.13372192 341.27710632 97.15950317 338.0260907 97.18606567 334.67655945 C97.22450614 331.519083 97.26966006 328.36176874 97.31546021 325.20439148 C97.34364127 323.01436641 97.36487001 320.82424018 97.37893677 318.63407898 C97.40040544 315.48104668 97.44707742 312.3292271 97.49856567 309.17655945 C97.49979431 308.20133331 97.50102295 307.22610718 97.50228882 306.22132874 C97.62423732 300.52855077 98.13586145 296.93254213 102.10794067 292.52812195 C106.5654488 288.6629737 111.39762369 289.07657611 117.01028442 289.0945282 C117.96560562 289.08928635 118.92092682 289.08404449 119.90519714 289.0786438 C121.9215803 289.07223272 123.93800091 289.07354875 125.95437622 289.08207703 C129.03163579 289.09058379 132.10703636 289.0618178 135.18411255 289.03007507 C137.14700262 289.02846277 139.10989596 289.02904114 141.07278442 289.0320282 C141.98857773 289.02079422 142.90437103 289.00956024 143.84791565 288.99798584 C149.40840854 289.05833689 152.78993542 289.68033335 157.10794067 293.52812195 C159.91241824 297.38572314 160.48685205 300.08794079 160.50666809 304.82397461 C160.51920624 306.09297104 160.53174438 307.36196747 160.54466248 308.66941833 C160.54348852 310.0680392 160.54202941 311.46665985 160.54031372 312.86528015 C160.54933361 314.34383971 160.55966139 315.82239177 160.57119751 317.30093384 C160.59876719 321.30879418 160.60805195 325.31651262 160.61405158 329.3244555 C160.62343535 333.51521947 160.64963874 337.70587745 160.67405701 341.89657593 C160.71772564 349.82956507 160.74627036 357.76253365 160.76938039 365.69560641 C160.79643011 374.72825959 160.84034176 383.76080617 160.88566911 392.79338324 C160.9785206 411.37157321 161.05019903 429.94979136 161.10794067 448.52812195 C161.94043335 448.54270447 162.77292603 448.55728699 163.63064575 448.5723114 C166.7228372 448.63340825 169.81436149 448.70756751 172.90603638 448.79057312 C174.90084697 448.84013513 176.89601325 448.87463328 178.8911438 448.90898132 C180.14475708 448.94443054 181.39837036 448.97987976 182.68997192 449.0164032 C183.84730835 449.04258728 185.00464478 449.06877136 186.197052 449.0957489 C189.10794067 449.52812195 189.10794067 449.52812195 190.98416138 450.93901062 C192.38837739 452.92468127 192.51041155 454.11068471 192.48294067 456.52812195 C192.49067505 457.20874695 192.49840942 457.88937195 192.50637817 458.59062195 C191.95950418 461.2499308 191.33211026 461.93728061 189.10794067 463.52812195 C186.43100864 463.82839431 183.9847317 463.94407223 181.30625916 463.92684937 C180.50331962 463.93349619 179.70038008 463.94014302 178.87310904 463.94699126 C176.17367073 463.96569309 173.47467285 463.96301119 170.775177 463.960495 C168.84371816 463.96950778 166.91226507 463.9798338 164.9808197 463.99137878 C159.72908376 464.01903172 154.47745609 464.02824454 149.22565675 464.03423285 C143.74030378 464.04359498 138.25503238 464.06979655 132.76972961 464.09423828 C122.37880083 464.13796658 111.98788782 464.16647464 101.59689492 464.18956167 C89.76870857 464.21657945 77.94060402 464.26049302 66.11247599 464.30585039 C41.77767344 464.39878733 17.44284873 464.46982725 -6.89205933 464.52812195 C-6.89205933 475.08812195 -6.89205933 485.64812195 -6.89205933 496.52812195 C114.54794067 496.52812195 235.98794067 496.52812195 361.10794067 496.52812195 C361.10794067 434.48812195 361.10794067 372.44812195 361.10794067 308.52812195 C357.14794067 309.18812195 353.18794067 309.84812195 349.10794067 310.52812195 C320.02317286 315.37558325 291.54158321 309.50660313 267.43606567 292.66093445 C245.0669529 275.4922842 230.20855467 251.6225522 226.10794067 223.52812195 C225.22200948 207.68522833 224.93139381 191.670731 230.10794067 176.52812195 C230.31692993 175.89986511 230.52591919 175.27160828 230.74124146 174.62431335 C236.05871074 158.95869037 244.54465505 146.23372494 256.10794067 134.52812195 C256.96258911 133.56519226 256.96258911 133.56519226 257.83450317 132.58280945 C271.73690546 117.25451974 296.72560796 106.43010635 317.21316528 105.36698914 C331.23510418 105.18840539 344.48256083 105.02802437 358.10794067 108.52812195 C359.09794067 108.52812195 360.08794067 108.52812195 361.10794067 108.52812195 C361.10794067 99.28812195 361.10794067 90.04812195 361.10794067 80.52812195 C355.36516724 80.48945007 355.36516724 80.48945007 349.50637817 80.44999695 C345.79292489 80.41156987 342.07961014 80.36641149 338.36624146 80.32060242 C335.78818388 80.29240035 333.21003996 80.27118208 330.63186646 80.25712585 C326.92292092 80.23568686 323.21501274 80.18902799 319.50637817 80.13749695 C318.3561618 80.13626831 317.20594543 80.13503967 316.02087402 80.1337738 C309.95419108 80.02307678 305.73605625 79.89115825 301.10794067 75.52812195 C290.96629676 58.6253821 297.47291166 36.23655547 297.10794067 16.52812195 C196.78794067 16.52812195 96.46794067 16.52812195 -6.89205933 16.52812195 Z M313.10794067 29.52812195 C313.10794067 41.07812195 313.10794067 52.62812195 313.10794067 64.52812195 C324.65794067 64.52812195 336.20794067 64.52812195 348.10794067 64.52812195 C343.6036218 59.20573784 343.6036218 59.20573784 338.87234497 54.16313171 C338.31544479 53.60307938 337.75854462 53.04302704 337.18476868 52.46600342 C336.3172271 51.60149818 336.3172271 51.60149818 335.43215942 50.7195282 C334.82153152 50.10794357 334.21090363 49.49635895 333.58177185 48.86624146 C332.30485683 47.58865155 331.02670075 46.31230092 329.74734497 45.03715515 C327.77977501 43.07499939 325.81767335 41.10748675 323.85598755 39.13945007 C322.61086585 37.89498819 321.36543451 36.65083601 320.11965942 35.4070282 C319.53117722 34.81652176 318.94269501 34.22601532 318.33638 33.61761475 C316.08738501 30.82391024 316.08738501 30.82391024 313.10794067 29.52812195 Z M265.10794067 148.52812195 C251.29880616 163.18599065 244.09974987 180.61002998 242.10794067 200.52812195 C268.17794067 200.52812195 294.24794067 200.52812195 321.10794067 200.52812195 C321.10794067 174.45812195 321.10794067 148.38812195 321.10794067 121.52812195 C300.06055987 121.52812195 279.59604466 134.10857365 265.10794067 148.52812195 Z M337.10794067 121.52812195 C335.29609968 134.09624991 334.10025616 146.66106332 333.42044067 159.34062195 C333.36993561 160.27592869 333.31943054 161.21123543 333.26739502 162.1748848 C332.1381213 185.86280474 334.01895718 204.95000317 350.24465942 223.17655945 C355.41423733 228.83711557 360.90827902 234.09384629 366.60794067 239.21562195 C367.31345188 239.85008366 368.01896309 240.48454536 368.74585342 241.13823318 C377.55987143 249.00216704 386.66164857 256.43728947 396.10794067 263.52812195 C409.41909626 250.56646643 416.18833843 230.79841156 416.53982544 212.45756531 C416.58189499 187.70054921 410.09328693 166.96574688 393.10794067 148.52812195 C392.55880005 147.89905945 392.00965942 147.26999695 391.44387817 146.62187195 C378.69146655 132.80152437 360.31332301 124.83632348 342.10794067 121.52812195 C340.44144848 121.50400679 338.77436052 121.49943972 337.10794067 121.52812195 Z M242.10794067 216.52812195 C243.85527315 234.00144675 249.41922015 250.17538218 261.10794067 263.52812195 C266.89623904 258.71773088 272.2279314 253.55376641 277.54153442 248.2273407 C278.41947159 247.35036026 279.29740875 246.47337982 280.20195007 245.56982422 C282.04448247 243.72796904 283.88576577 241.88486355 285.7258606 240.04057312 C287.61633864 238.14649385 289.50808193 236.25382075 291.40261841 234.36381531 C294.1390949 231.63348023 296.87212771 228.89974738 299.60403442 226.1648407 C300.45702621 225.31387314 301.31001801 224.46290558 302.18885803 223.58615112 C302.96709427 222.80476273 303.74533051 222.02337433 304.54714966 221.2183075 C305.23663193 220.52802963 305.9261142 219.83775177 306.63648987 219.1265564 C308.22082045 217.76759967 308.22082045 217.76759967 308.10794067 216.52812195 C286.32794067 216.52812195 264.54794067 216.52812195 242.10794067 216.52812195 Z M324.43218994 224.95503235 C323.68556595 225.71244217 323.68556595 225.71244217 322.92385864 226.4851532 C322.39687378 227.01184601 321.86988892 227.53853882 321.32693481 228.08119202 C319.57988606 229.82963818 317.84003446 231.5850704 316.10012817 233.34062195 C314.89272898 234.55174981 313.68488853 235.76243792 312.47662354 236.97270203 C309.29273824 240.1642353 306.11490353 243.3617285 302.93826294 246.56047058 C299.69765172 249.82151517 296.45139401 253.07692789 293.20559692 256.33280945 C286.83415074 262.72572608 280.469078 269.12494878 274.10794067 275.52812195 C287.64602986 289.27877074 307.41259905 295.53582033 326.38137817 296.5242157 C347.22940236 296.54606897 368.23920882 290.41929147 384.10794067 276.52812195 C378.80397133 270.10095251 372.97675253 264.23316407 367.09231567 258.3445282 C366.0294385 257.27843278 364.96663456 256.21226434 363.90390015 255.14602661 C361.69015034 252.92632494 359.47438014 250.70866306 357.25735474 248.49223328 C354.41189761 245.64687856 351.57342829 242.79465859 348.73659897 239.9407053 C346.5507678 237.74379214 344.36044393 235.55140194 342.16880035 233.36028862 C341.11937153 232.30967773 340.07156851 231.25744029 339.02541351 230.20356941 C337.57029382 228.73870933 336.10904501 227.28025327 334.64602661 225.82328796 C333.40076202 224.57588585 333.40076202 224.57588585 332.13034058 223.30328369 C328.55711922 220.16688824 327.43398895 221.97128779 324.43218994 224.95503235 Z M113.10794067 304.52812195 C113.10794067 352.04812195 113.10794067 399.56812195 113.10794067 448.52812195 C123.66794067 448.52812195 134.22794067 448.52812195 145.10794067 448.52812195 C145.10794067 401.00812195 145.10794067 353.48812195 145.10794067 304.52812195 C134.54794067 304.52812195 123.98794067 304.52812195 113.10794067 304.52812195 Z M17.10794067 344.52812195 C17.10794067 378.84812195 17.10794067 413.16812195 17.10794067 448.52812195 C27.66794067 448.52812195 38.22794067 448.52812195 49.10794067 448.52812195 C49.10794067 414.20812195 49.10794067 379.88812195 49.10794067 344.52812195 C38.54794067 344.52812195 27.98794067 344.52812195 17.10794067 344.52812195 Z M65.10794067 360.52812195 C65.10794067 389.56812195 65.10794067 418.60812195 65.10794067 448.52812195 C75.66794067 448.52812195 86.22794067 448.52812195 97.10794067 448.52812195 C97.10794067 419.48812195 97.10794067 390.44812195 97.10794067 360.52812195 C86.54794067 360.52812195 75.98794067 360.52812195 65.10794067 360.52812195 Z M-30.89205933 376.52812195 C-30.89205933 400.28812195 -30.89205933 424.04812195 -30.89205933 448.52812195 C-20.33205933 448.52812195 -9.77205933 448.52812195 1.10794067 448.52812195 C1.10794067 424.76812195 1.10794067 401.00812195 1.10794067 376.52812195 C-9.45205933 376.52812195 -20.01205933 376.52812195 -30.89205933 376.52812195 Z " fill="#000000" transform="translate(78.89205932617188,-0.5281219482421875)"/>
<path d="M0 0 C1.27866943 -0.0112793 2.55733887 -0.02255859 3.87475586 -0.03417969 C5.28955305 -0.02640266 6.704348 -0.01821 8.11914062 -0.00964355 C9.61076542 -0.01506435 11.10238485 -0.02218677 12.59399414 -0.03088379 C16.6436169 -0.04912547 20.69283223 -0.04204633 24.74246216 -0.02936745 C28.97936099 -0.01924407 33.21622481 -0.02863128 37.453125 -0.03491211 C44.56842312 -0.04219046 51.68355521 -0.03259594 58.79882812 -0.0135498 C67.02641862 0.00821938 75.25361265 0.00116814 83.48119354 -0.02085543 C90.54373317 -0.03900413 97.6061534 -0.04157037 104.6687088 -0.03110075 C108.88752237 -0.02486287 113.10614956 -0.02403817 117.32495117 -0.0372467 C121.29119435 -0.04879699 125.25692611 -0.04079505 129.22311401 -0.01766968 C130.6791804 -0.01237811 132.1352898 -0.01390409 133.59133911 -0.02272034 C135.57780425 -0.03363977 137.56436338 -0.01752243 139.55078125 0 C141.21880798 0.00226215 141.21880798 0.00226215 142.92053223 0.00457001 C146.42748135 0.62291028 147.6037293 1.74310328 149.77539062 4.50793457 C150.30664062 6.50793457 150.30664062 6.50793457 150.27539062 8.50793457 C150.29085937 9.49793457 150.29085937 9.49793457 150.30664062 10.50793457 C149.52474835 13.45152901 148.12782438 14.6039415 145.77539062 16.50793457 C142.92053223 17.01129913 142.92053223 17.01129913 139.55078125 17.01586914 C138.27211182 17.02714844 136.99344238 17.03842773 135.67602539 17.05004883 C134.2612282 17.0422718 132.84643325 17.03407914 131.43164062 17.0255127 C129.94001583 17.03093349 128.4483964 17.03805591 126.95678711 17.04675293 C122.90716435 17.06499461 118.85794902 17.05791547 114.80831909 17.04523659 C110.57142026 17.03511321 106.33455644 17.04450042 102.09765625 17.05078125 C94.98235813 17.0580596 87.86722604 17.04846509 80.75195312 17.02941895 C72.52436263 17.00764976 64.2971686 17.014701 56.06958771 17.03672457 C49.00704808 17.05487327 41.94462785 17.05743951 34.88207245 17.04696989 C30.66325888 17.04073201 26.44463169 17.03990731 22.22583008 17.05311584 C18.2595869 17.06466613 14.29385514 17.05666419 10.32766724 17.03353882 C8.87160085 17.02824725 7.41549145 17.02977323 5.95944214 17.03858948 C3.972977 17.04950891 1.98641787 17.03339157 0 17.01586914 C-1.66802673 17.01360699 -1.66802673 17.01360699 -3.36975098 17.01129913 C-6.8767001 16.39295886 -8.05294805 15.27276586 -10.22460938 12.50793457 C-10.75585938 10.50793457 -10.75585938 10.50793457 -10.72460938 8.50793457 C-10.74007812 7.51793457 -10.74007812 7.51793457 -10.75585938 6.50793457 C-9.2677065 0.9054767 -5.22342768 0.00708394 0 0 Z " fill="#000000" transform="translate(114.224609375,127.4920654296875)"/>
<path d="M0 0 C1.27866943 -0.0112793 2.55733887 -0.02255859 3.87475586 -0.03417969 C5.28955305 -0.02640266 6.704348 -0.01821 8.11914062 -0.00964355 C9.61076542 -0.01506435 11.10238485 -0.02218677 12.59399414 -0.03088379 C16.6436169 -0.04912547 20.69283223 -0.04204633 24.74246216 -0.02936745 C28.97936099 -0.01924407 33.21622481 -0.02863128 37.453125 -0.03491211 C44.56842312 -0.04219046 51.68355521 -0.03259594 58.79882812 -0.0135498 C67.02641862 0.00821938 75.25361265 0.00116814 83.48119354 -0.02085543 C90.54373317 -0.03900413 97.6061534 -0.04157037 104.6687088 -0.03110075 C108.88752237 -0.02486287 113.10614956 -0.02403817 117.32495117 -0.0372467 C121.29119435 -0.04879699 125.25692611 -0.04079505 129.22311401 -0.01766968 C130.6791804 -0.01237811 132.1352898 -0.01390409 133.59133911 -0.02272034 C135.57780425 -0.03363977 137.56436338 -0.01752243 139.55078125 0 C141.21880798 0.00226215 141.21880798 0.00226215 142.92053223 0.00457001 C146.42748135 0.62291028 147.6037293 1.74310328 149.77539062 4.50793457 C150.30664062 6.50793457 150.30664062 6.50793457 150.27539062 8.50793457 C150.29085937 9.49793457 150.29085937 9.49793457 150.30664062 10.50793457 C149.52474835 13.45152901 148.12782438 14.6039415 145.77539062 16.50793457 C142.92053223 17.01129913 142.92053223 17.01129913 139.55078125 17.01586914 C138.27211182 17.02714844 136.99344238 17.03842773 135.67602539 17.05004883 C134.2612282 17.0422718 132.84643325 17.03407914 131.43164062 17.0255127 C129.94001583 17.03093349 128.4483964 17.03805591 126.95678711 17.04675293 C122.90716435 17.06499461 118.85794902 17.05791547 114.80831909 17.04523659 C110.57142026 17.03511321 106.33455644 17.04450042 102.09765625 17.05078125 C94.98235813 17.0580596 87.86722604 17.04846509 80.75195312 17.02941895 C72.52436263 17.00764976 64.2971686 17.014701 56.06958771 17.03672457 C49.00704808 17.05487327 41.94462785 17.05743951 34.88207245 17.04696989 C30.66325888 17.04073201 26.44463169 17.03990731 22.22583008 17.05311584 C18.2595869 17.06466613 14.29385514 17.05666419 10.32766724 17.03353882 C8.87160085 17.02824725 7.41549145 17.02977323 5.95944214 17.03858948 C3.972977 17.04950891 1.98641787 17.03339157 0 17.01586914 C-1.66802673 17.01360699 -1.66802673 17.01360699 -3.36975098 17.01129913 C-6.8767001 16.39295886 -8.05294805 15.27276586 -10.22460938 12.50793457 C-10.75585938 10.50793457 -10.75585938 10.50793457 -10.72460938 8.50793457 C-10.74007812 7.51793457 -10.74007812 7.51793457 -10.75585938 6.50793457 C-9.2677065 0.9054767 -5.22342768 0.00708394 0 0 Z " fill="#000000" transform="translate(114.224609375,95.4920654296875)"/>
<path d="M0 0 C1.0094165 -0.0112793 2.01883301 -0.02255859 3.05883789 -0.03417969 C4.16026123 -0.02608276 5.26168457 -0.01798584 6.39648438 -0.00964355 C7.56107178 -0.01665283 8.72565918 -0.02366211 9.92553711 -0.03088379 C13.78067771 -0.04850975 17.63508612 -0.03682384 21.49023438 -0.02331543 C24.1653739 -0.026009 26.84049107 -0.02988396 29.515625 -0.03491211 C35.12442987 -0.0421874 40.733024 -0.03260414 46.34179688 -0.0135498 C52.82441344 0.008219 59.30652679 0.00116752 65.78913116 -0.02085543 C71.35700027 -0.03901302 76.92471797 -0.04156609 82.49260712 -0.03110075 C85.81719107 -0.02486765 89.14148689 -0.02559741 92.46606445 -0.0372467 C96.17238595 -0.04738291 99.87773545 -0.03195028 103.58398438 -0.00964355 C104.68540771 -0.01774048 105.78683105 -0.0258374 106.92163086 -0.03417969 C108.43575562 -0.01726074 108.43575562 -0.01726074 109.98046875 0 C110.85650757 0.0015081 111.73254639 0.0030162 112.63513184 0.00457001 C115.76922829 0.67443175 116.98468568 2.06729702 118.99023438 4.50793457 C119.52148438 6.50793457 119.52148438 6.50793457 119.49023438 8.50793457 C119.50570312 9.49793457 119.50570312 9.49793457 119.52148438 10.50793457 C118.75060311 13.41007581 117.27232168 14.5993654 114.99023438 16.50793457 C112.63513184 17.01129913 112.63513184 17.01129913 109.98046875 17.01586914 C108.97105225 17.02714844 107.96163574 17.03842773 106.92163086 17.05004883 C105.82020752 17.0419519 104.71878418 17.03385498 103.58398438 17.0255127 C102.41939697 17.03252197 101.25480957 17.03953125 100.05493164 17.04675293 C96.19979104 17.06437889 92.34538263 17.05269298 88.49023438 17.03918457 C85.81509485 17.04187814 83.13997768 17.0457531 80.46484375 17.05078125 C74.85603888 17.05805654 69.24744475 17.04847328 63.63867188 17.02941895 C57.15605531 17.00765014 50.67394196 17.01470162 44.19133759 17.03672457 C38.62346848 17.05488216 33.05575078 17.05743523 27.48786163 17.04696989 C24.16327768 17.04073679 20.83898186 17.04146655 17.5144043 17.05311584 C13.8080828 17.06325205 10.1027333 17.04781942 6.39648438 17.0255127 C5.29506104 17.03360962 4.1936377 17.04170654 3.05883789 17.05004883 C1.54471313 17.03312988 1.54471313 17.03312988 0 17.01586914 C-0.87603882 17.01436104 -1.75207764 17.01285294 -2.65466309 17.01129913 C-5.78875954 16.34143739 -7.00421693 14.94857212 -9.00976562 12.50793457 C-9.54101562 10.50793457 -9.54101562 10.50793457 -9.50976562 8.50793457 C-9.52523437 7.51793457 -9.52523437 7.51793457 -9.54101562 6.50793457 C-8.23625145 1.59588121 -4.74608273 0.00817039 0 0 Z " fill="#000000" transform="translate(145.009765625,207.4920654296875)"/>
<path d="M0 0 C1.0094165 -0.0112793 2.01883301 -0.02255859 3.05883789 -0.03417969 C4.16026123 -0.02608276 5.26168457 -0.01798584 6.39648438 -0.00964355 C7.56107178 -0.01665283 8.72565918 -0.02366211 9.92553711 -0.03088379 C13.78067771 -0.04850975 17.63508612 -0.03682384 21.49023438 -0.02331543 C24.1653739 -0.026009 26.84049107 -0.02988396 29.515625 -0.03491211 C35.12442987 -0.0421874 40.733024 -0.03260414 46.34179688 -0.0135498 C52.82441344 0.008219 59.30652679 0.00116752 65.78913116 -0.02085543 C71.35700027 -0.03901302 76.92471797 -0.04156609 82.49260712 -0.03110075 C85.81719107 -0.02486765 89.14148689 -0.02559741 92.46606445 -0.0372467 C96.17238595 -0.04738291 99.87773545 -0.03195028 103.58398438 -0.00964355 C104.68540771 -0.01774048 105.78683105 -0.0258374 106.92163086 -0.03417969 C108.43575562 -0.01726074 108.43575562 -0.01726074 109.98046875 0 C110.85650757 0.0015081 111.73254639 0.0030162 112.63513184 0.00457001 C115.76922829 0.67443175 116.98468568 2.06729702 118.99023438 4.50793457 C119.52148438 6.50793457 119.52148438 6.50793457 119.49023438 8.50793457 C119.50570312 9.49793457 119.50570312 9.49793457 119.52148438 10.50793457 C118.75060311 13.41007581 117.27232168 14.5993654 114.99023438 16.50793457 C112.63513184 17.01129913 112.63513184 17.01129913 109.98046875 17.01586914 C108.97105225 17.02714844 107.96163574 17.03842773 106.92163086 17.05004883 C105.82020752 17.0419519 104.71878418 17.03385498 103.58398438 17.0255127 C102.41939697 17.03252197 101.25480957 17.03953125 100.05493164 17.04675293 C96.19979104 17.06437889 92.34538263 17.05269298 88.49023438 17.03918457 C85.81509485 17.04187814 83.13997768 17.0457531 80.46484375 17.05078125 C74.85603888 17.05805654 69.24744475 17.04847328 63.63867188 17.02941895 C57.15605531 17.00765014 50.67394196 17.01470162 44.19133759 17.03672457 C38.62346848 17.05488216 33.05575078 17.05743523 27.48786163 17.04696989 C24.16327768 17.04073679 20.83898186 17.04146655 17.5144043 17.05311584 C13.8080828 17.06325205 10.1027333 17.04781942 6.39648438 17.0255127 C5.29506104 17.03360962 4.1936377 17.04170654 3.05883789 17.05004883 C1.54471313 17.03312988 1.54471313 17.03312988 0 17.01586914 C-0.87603882 17.01436104 -1.75207764 17.01285294 -2.65466309 17.01129913 C-5.78875954 16.34143739 -7.00421693 14.94857212 -9.00976562 12.50793457 C-9.54101562 10.50793457 -9.54101562 10.50793457 -9.50976562 8.50793457 C-9.52523437 7.51793457 -9.52523437 7.51793457 -9.54101562 6.50793457 C-8.23625145 1.59588121 -4.74608273 0.00817039 0 0 Z " fill="#000000" transform="translate(145.009765625,63.4920654296875)"/>
<path d="M0 0 C0.85247314 -0.00700928 1.70494629 -0.01401855 2.58325195 -0.02124023 C5.3995832 -0.03883756 8.21490864 -0.02719147 11.03125 -0.01367188 C12.98893425 -0.01636629 14.9466172 -0.02024829 16.90429688 -0.02526855 C21.00664007 -0.03116595 25.10863482 -0.02259281 29.2109375 -0.00390625 C34.47045628 0.01888337 39.72915864 0.00576159 44.98864746 -0.01819611 C49.0309871 -0.03264751 53.07313305 -0.0280511 57.11547852 -0.01768494 C59.05476986 -0.01501583 60.99407877 -0.01829385 62.93334961 -0.02760315 C65.6435405 -0.03775789 68.35240775 -0.02228315 71.0625 0 C71.86469971 -0.00809692 72.66689941 -0.01619385 73.4934082 -0.02453613 C77.09387563 0.03033112 79.1245547 0.20680866 82.02734375 2.42492676 C83.65685192 4.69235034 84.0743805 5.75722605 84.03125 8.51757812 C84.04671875 9.50757813 84.04671875 9.50757813 84.0625 10.51757812 C83.25733917 13.54877184 82.02578717 14.61141893 79.53125 16.51757812 C76.5833973 16.912136 74.00947717 17.06490127 71.0625 17.03515625 C69.78379028 17.04567017 69.78379028 17.04567017 68.47924805 17.05639648 C65.6629168 17.07399381 62.84759136 17.06234772 60.03125 17.04882812 C58.07356575 17.05152254 56.1158828 17.05540454 54.15820312 17.0604248 C50.05585993 17.0663222 45.95386518 17.05774906 41.8515625 17.0390625 C36.59204372 17.01627288 31.33334136 17.02939466 26.07385254 17.05335236 C22.0315129 17.06780376 17.98936695 17.06320735 13.94702148 17.05284119 C12.00773014 17.05017208 10.06842123 17.0534501 8.12915039 17.0627594 C5.4189595 17.07291414 2.71009225 17.0574394 0 17.03515625 C-0.80219971 17.04325317 -1.60439941 17.0513501 -2.4309082 17.05969238 C-6.03137563 17.00482513 -8.0620547 16.82834759 -10.96484375 14.61022949 C-12.59435192 12.34280591 -13.0118805 11.2779302 -12.96875 8.51757812 C-12.98421875 7.52757812 -12.98421875 7.52757812 -13 6.51757812 C-11.24883612 -0.07503884 -5.81974348 -0.05874101 0 0 Z " fill="#000000" transform="translate(316.46875,407.482421875)"/>
<path d="M0 0 C0.85247314 -0.00700928 1.70494629 -0.01401855 2.58325195 -0.02124023 C5.3995832 -0.03883756 8.21490864 -0.02719147 11.03125 -0.01367188 C12.98893425 -0.01636629 14.9466172 -0.02024829 16.90429688 -0.02526855 C21.00664007 -0.03116595 25.10863482 -0.02259281 29.2109375 -0.00390625 C34.47045628 0.01888337 39.72915864 0.00576159 44.98864746 -0.01819611 C49.0309871 -0.03264751 53.07313305 -0.0280511 57.11547852 -0.01768494 C59.05476986 -0.01501583 60.99407877 -0.01829385 62.93334961 -0.02760315 C65.6435405 -0.03775789 68.35240775 -0.02228315 71.0625 0 C71.86469971 -0.00809692 72.66689941 -0.01619385 73.4934082 -0.02453613 C77.09387563 0.03033112 79.1245547 0.20680866 82.02734375 2.42492676 C83.65685192 4.69235034 84.0743805 5.75722605 84.03125 8.51757812 C84.04671875 9.50757813 84.04671875 9.50757813 84.0625 10.51757812 C83.25733917 13.54877184 82.02578717 14.61141893 79.53125 16.51757812 C76.5833973 16.912136 74.00947717 17.06490127 71.0625 17.03515625 C69.78379028 17.04567017 69.78379028 17.04567017 68.47924805 17.05639648 C65.6629168 17.07399381 62.84759136 17.06234772 60.03125 17.04882812 C58.07356575 17.05152254 56.1158828 17.05540454 54.15820312 17.0604248 C50.05585993 17.0663222 45.95386518 17.05774906 41.8515625 17.0390625 C36.59204372 17.01627288 31.33334136 17.02939466 26.07385254 17.05335236 C22.0315129 17.06780376 17.98936695 17.06320735 13.94702148 17.05284119 C12.00773014 17.05017208 10.06842123 17.0534501 8.12915039 17.0627594 C5.4189595 17.07291414 2.71009225 17.0574394 0 17.03515625 C-0.80219971 17.04325317 -1.60439941 17.0513501 -2.4309082 17.05969238 C-6.03137563 17.00482513 -8.0620547 16.82834759 -10.96484375 14.61022949 C-12.59435192 12.34280591 -13.0118805 11.2779302 -12.96875 8.51757812 C-12.98421875 7.52757812 -12.98421875 7.52757812 -13 6.51757812 C-11.24883612 -0.07503884 -5.81974348 -0.05874101 0 0 Z " fill="#000000" transform="translate(316.46875,375.482421875)"/>
<path d="M0 0 C0.69641602 -0.00700928 1.39283203 -0.01401855 2.11035156 -0.02124023 C4.40730932 -0.03881383 6.70303021 -0.02720107 9 -0.01367188 C10.59896073 -0.01636701 12.19791987 -0.0202496 13.796875 -0.02526855 C17.14599226 -0.03116269 20.49468243 -0.0226038 23.84375 -0.00390625 C28.13478591 0.01888377 32.42482111 0.00576017 36.71582031 -0.01819611 C40.01700366 -0.03265667 43.31795011 -0.02804703 46.61914062 -0.01768494 C48.20117308 -0.01501834 49.78322711 -0.0182851 51.36523438 -0.02760315 C53.57740163 -0.03777366 55.787953 -0.02226378 58 0 C59.8871875 0.00477356 59.8871875 0.00477356 61.8125 0.00964355 C65.55520109 0.60605054 66.73159929 1.54273163 69 4.51757812 C69.53125 6.51757812 69.53125 6.51757812 69.5 8.51757812 C69.51546875 9.50757813 69.51546875 9.50757813 69.53125 10.51757812 C68.74176632 13.48975197 67.39936627 14.61414098 65 16.51757812 C61.8125 17.0255127 61.8125 17.0255127 58 17.03515625 C57.30358398 17.04216553 56.60716797 17.0491748 55.88964844 17.05639648 C53.59269068 17.07397008 51.29696979 17.06235732 49 17.04882812 C47.40103927 17.05152326 45.80208013 17.05540585 44.203125 17.0604248 C40.85400774 17.06631894 37.50531757 17.05776005 34.15625 17.0390625 C29.86521409 17.01627248 25.57517889 17.02939608 21.28417969 17.05335236 C17.98299634 17.06781292 14.68204989 17.06320328 11.38085938 17.05284119 C9.79882692 17.05017459 8.21677289 17.05344135 6.63476562 17.0627594 C4.42259837 17.07292991 2.212047 17.05742003 0 17.03515625 C-1.258125 17.03197388 -2.51625 17.0287915 -3.8125 17.0255127 C-7.55520109 16.42910571 -8.73159929 15.49242462 -11 12.51757812 C-11.53125 10.51757812 -11.53125 10.51757812 -11.5 8.51757812 C-11.51546875 7.52757812 -11.51546875 7.52757812 -11.53125 6.51757812 C-9.93997703 0.52690342 -5.4948528 0.01389899 0 0 Z " fill="#000000" transform="translate(115,239.482421875)"/>
<path d="M0 0 C0.69641602 -0.00700928 1.39283203 -0.01401855 2.11035156 -0.02124023 C4.40730932 -0.03881383 6.70303021 -0.02720107 9 -0.01367188 C10.59896073 -0.01636701 12.19791987 -0.0202496 13.796875 -0.02526855 C17.14599226 -0.03116269 20.49468243 -0.0226038 23.84375 -0.00390625 C28.13478591 0.01888377 32.42482111 0.00576017 36.71582031 -0.01819611 C40.01700366 -0.03265667 43.31795011 -0.02804703 46.61914062 -0.01768494 C48.20117308 -0.01501834 49.78322711 -0.0182851 51.36523438 -0.02760315 C53.57740163 -0.03777366 55.787953 -0.02226378 58 0 C59.8871875 0.00477356 59.8871875 0.00477356 61.8125 0.00964355 C65.55520109 0.60605054 66.73159929 1.54273163 69 4.51757812 C69.53125 6.51757812 69.53125 6.51757812 69.5 8.51757812 C69.51546875 9.50757813 69.51546875 9.50757813 69.53125 10.51757812 C68.74176632 13.48975197 67.39936627 14.61414098 65 16.51757812 C61.8125 17.0255127 61.8125 17.0255127 58 17.03515625 C57.30358398 17.04216553 56.60716797 17.0491748 55.88964844 17.05639648 C53.59269068 17.07397008 51.29696979 17.06235732 49 17.04882812 C47.40103927 17.05152326 45.80208013 17.05540585 44.203125 17.0604248 C40.85400774 17.06631894 37.50531757 17.05776005 34.15625 17.0390625 C29.86521409 17.01627248 25.57517889 17.02939608 21.28417969 17.05335236 C17.98299634 17.06781292 14.68204989 17.06320328 11.38085938 17.05284119 C9.79882692 17.05017459 8.21677289 17.05344135 6.63476562 17.0627594 C4.42259837 17.07292991 2.212047 17.05742003 0 17.03515625 C-1.258125 17.03197388 -2.51625 17.0287915 -3.8125 17.0255127 C-7.55520109 16.42910571 -8.73159929 15.49242462 -11 12.51757812 C-11.53125 10.51757812 -11.53125 10.51757812 -11.5 8.51757812 C-11.51546875 7.52757812 -11.51546875 7.52757812 -11.53125 6.51757812 C-9.93997703 0.52690342 -5.4948528 0.01389899 0 0 Z " fill="#000000" transform="translate(115,159.482421875)"/>
<path d="M0 0 C1.10794922 -0.01260864 2.21589844 -0.02521729 3.35742188 -0.03820801 C4.54916016 -0.03011108 5.74089844 -0.02201416 6.96875 -0.01367188 C8.19658203 -0.01749878 9.42441406 -0.02132568 10.68945312 -0.02526855 C13.28516459 -0.02799029 15.88090336 -0.02061099 18.4765625 -0.00390625 C22.45374599 0.01749738 26.42912282 -0.0037015 30.40625 -0.02929688 C32.92708733 -0.02665365 35.44792353 -0.02152878 37.96875 -0.01367188 C39.16048828 -0.0217688 40.35222656 -0.02986572 41.58007812 -0.03820801 C43.24200195 -0.01929504 43.24200195 -0.01929504 44.9375 0 C45.91138672 0.00318237 46.88527344 0.00636475 47.88867188 0.00964355 C51.19021681 0.65961178 52.38452655 1.93295409 54.46875 4.51757812 C55 6.51757812 55 6.51757812 54.96875 8.51757812 C54.98421875 9.50757813 54.98421875 9.50757813 55 10.51757812 C54.2245785 13.43681202 52.78007479 14.6111988 50.46875 16.51757812 C47.88867188 17.0255127 47.88867188 17.0255127 44.9375 17.03515625 C43.82955078 17.04776489 42.72160156 17.06037354 41.58007812 17.07336426 C40.38833984 17.06526733 39.19660156 17.05717041 37.96875 17.04882812 C36.12700195 17.05456848 36.12700195 17.05456848 34.24804688 17.0604248 C31.65233541 17.06314654 29.05659664 17.05576724 26.4609375 17.0390625 C22.48375401 17.01765887 18.50837718 17.03885775 14.53125 17.06445312 C12.01041267 17.0618099 9.48957647 17.05668503 6.96875 17.04882812 C5.77701172 17.05692505 4.58527344 17.06502197 3.35742188 17.07336426 C1.69549805 17.05445129 1.69549805 17.05445129 0 17.03515625 C-0.97388672 17.03197388 -1.94777344 17.0287915 -2.95117188 17.0255127 C-6.25271681 16.37554447 -7.44702655 15.10220216 -9.53125 12.51757812 C-10.0625 10.51757812 -10.0625 10.51757812 -10.03125 8.51757812 C-10.04671875 7.52757812 -10.04671875 7.52757812 -10.0625 6.51757812 C-8.67664018 1.3002235 -4.95665502 0.01619688 0 0 Z " fill="#000000" transform="translate(345.53125,343.482421875)"/>
<path d="M0 0 C0.87269531 -0.0038269 1.74539063 -0.00765381 2.64453125 -0.01159668 C4.48699092 -0.0143149 6.32948924 -0.00695994 8.171875 0.00976562 C10.99045934 0.03117752 13.80649485 0.00996199 16.625 -0.015625 C18.41667229 -0.01298171 20.20834299 -0.00785669 22 0 C22.84175781 -0.00809692 23.68351562 -0.01619385 24.55078125 -0.02453613 C30.38715618 0.06889601 30.38715618 0.06889601 33.52929688 2.43945312 C35.12144695 4.7039853 35.542797 5.7922417 35.5 8.53125 C35.5103125 9.19125 35.520625 9.85125 35.53125 10.53125 C34.72011424 13.58493756 33.53019712 14.62236769 31 16.53125 C28.00263779 17.13239553 25.04890723 17.09182764 22 17.0625 C21.12730469 17.0663269 20.25460937 17.07015381 19.35546875 17.07409668 C17.51300908 17.0768149 15.67051076 17.06945994 13.828125 17.05273438 C11.00954066 17.03132248 8.19350515 17.05253801 5.375 17.078125 C3.58332771 17.07548171 1.79165701 17.07035669 0 17.0625 C-0.84175781 17.07059692 -1.68351562 17.07869385 -2.55078125 17.08703613 C-8.38715618 16.99360399 -8.38715618 16.99360399 -11.52929688 14.62304688 C-13.12144695 12.3585147 -13.542797 11.2702583 -13.5 8.53125 C-13.51546875 7.54125 -13.51546875 7.54125 -13.53125 6.53125 C-11.69061453 -0.39820116 -5.94975317 -0.05723107 0 0 Z " fill="#000000" transform="translate(317,439.46875)"/>
<path d="M0 0 C2.5 1.5 2.5 1.5 4 4 C4.791013 8.02098277 4.62153384 10.96411027 2.5 14.5 C-1.03588973 16.62153384 -3.97901723 16.791013 -8 16 C-10.5 14.5 -10.5 14.5 -12 12 C-12.791013 7.97901723 -12.62153384 5.03588973 -10.5 1.5 C-6.96411027 -0.62153384 -4.02098277 -0.791013 0 0 Z " fill="#000000" transform="translate(380,440)"/>
<path d="M0 0 C2.5 1.5 2.5 1.5 4 4 C4.791013 8.02098277 4.62153384 10.96411027 2.5 14.5 C-1.03588973 16.62153384 -3.97901723 16.791013 -8 16 C-10.5 14.5 -10.5 14.5 -12 12 C-12.791013 7.97901723 -12.62153384 5.03588973 -10.5 1.5 C-6.96411027 -0.62153384 -4.02098277 -0.791013 0 0 Z " fill="#000000" transform="translate(212,240)"/>
<path d="M0 0 C2.5 1.5 2.5 1.5 4 4 C4.791013 8.02098277 4.62153384 10.96411027 2.5 14.5 C-1.03588973 16.62153384 -3.97901723 16.791013 -8 16 C-10.5 14.5 -10.5 14.5 -12 12 C-12.791013 7.97901723 -12.62153384 5.03588973 -10.5 1.5 C-6.96411027 -0.62153384 -4.02098277 -0.791013 0 0 Z " fill="#000000" transform="translate(212,160)"/>
</svg>
