<?xml version="1.0" encoding="UTF-8"?>
<svg version="1.1" xmlns="http://www.w3.org/2000/svg" width="512" height="512">
<path d="M0 0 C1.42943998 -0.00346717 2.85887727 -0.00823876 4.2883091 -0.01418173 C8.17047883 -0.0265762 12.05242416 -0.02057482 15.93459415 -0.01122308 C20.1391703 -0.00438494 24.34371009 -0.01493723 28.54827881 -0.02316284 C36.7669518 -0.03645193 44.98554226 -0.03364405 53.20421839 -0.02492492 C59.88804453 -0.0181297 66.57184766 -0.01723958 73.25567627 -0.02049637 C74.68654396 -0.02118592 74.68654396 -0.02118592 76.14631808 -0.0218894 C78.0846111 -0.02284864 80.02290412 -0.02382128 81.96119714 -0.02480717 C100.10560684 -0.03334693 118.24997095 -0.02354917 136.39437318 -0.00740607 C151.93855676 0.00599582 167.4826731 0.00366733 183.02685547 -0.01016235 C201.10956363 -0.0262432 219.1922319 -0.03252309 237.27494621 -0.02332556 C239.20581944 -0.02236999 241.13669268 -0.02142687 243.06756592 -0.02049637 C244.4923359 -0.01980213 244.4923359 -0.01980213 245.94588912 -0.01909386 C252.61605583 -0.01651148 259.28619709 -0.0208587 265.95635986 -0.02793503 C274.09312082 -0.03637811 282.22979504 -0.03401114 290.36654615 -0.0180928 C294.51225269 -0.0102477 298.65781497 -0.00705368 302.8035202 -0.01704025 C306.6082764 -0.02606641 310.41275644 -0.02092605 314.21748805 -0.0051076 C316.22480423 -0.00023877 318.23214002 -0.00988488 320.2394352 -0.02027929 C346.64306573 0.14822306 369.74836824 10.74978976 388.16162109 29.38095093 C388.88865234 30.09766968 389.61568359 30.81438843 390.36474609 31.55282593 C407.58096678 49.58241137 414.66903509 73.79767424 414.54257202 98.21932983 C414.54603919 99.64876981 414.55081078 101.0782071 414.55675375 102.50763893 C414.56914822 106.38980867 414.56314684 110.271754 414.5537951 114.15392399 C414.54695696 118.35850014 414.55750925 122.56303992 414.56573486 126.76760864 C414.57902395 134.98628163 414.57621607 143.20487209 414.56749694 151.42354822 C414.56070172 158.10737436 414.5598116 164.79117749 414.56306839 171.4750061 C414.56352809 172.4289179 414.56398779 173.3828297 414.56446142 174.36564791 C414.56542066 176.30394094 414.56639331 178.24223396 414.56737919 180.18052697 C414.57591895 198.32493667 414.56612119 216.46930079 414.54997809 234.61370301 C414.5365762 250.15788659 414.5389047 265.70200294 414.55273438 281.2461853 C414.56881522 299.32889346 414.57509511 317.41156174 414.56589758 335.49427605 C414.56494201 337.42514928 414.5639989 339.35602251 414.56306839 341.28689575 C414.56260556 342.23674241 414.56214274 343.18658906 414.56166589 344.16521895 C414.5590835 350.83538566 414.56343072 357.50552693 414.57050705 364.1756897 C414.57895013 372.31245066 414.57658316 380.44912487 414.56066482 388.58587599 C414.55281972 392.73158252 414.5496257 396.87714481 414.55961227 401.02285004 C414.56863843 404.82760624 414.56349808 408.63208627 414.54767962 412.43681788 C414.54281079 414.44413407 414.5524569 416.45146986 414.56285131 418.45876503 C414.39434896 444.86239556 403.79278226 467.96769808 385.16162109 486.38095093 C384.08654297 487.4714978 384.08654297 487.4714978 382.98974609 488.58407593 C364.96016065 505.80029662 340.74489778 512.88836493 316.32324219 512.76190186 C314.89380221 512.76536902 313.46436492 512.77014062 312.03493309 512.77608359 C308.15276336 512.78847806 304.27081803 512.78247668 300.38864803 512.77312493 C296.18407189 512.76628679 291.9795321 512.77683908 287.77496338 512.7850647 C279.55629039 512.79835378 271.33769993 512.79554591 263.1190238 512.78682677 C256.43519766 512.78003155 249.75139453 512.77914143 243.06756592 512.78239822 C241.63669822 512.78308777 241.63669822 512.78308777 240.17692411 512.78379125 C238.23863108 512.7847505 236.30033806 512.78572314 234.36204505 512.78670903 C216.21763535 512.79524879 198.07327123 512.78545103 179.92886901 512.76930793 C164.38468543 512.75590604 148.84056908 512.75823453 133.29638672 512.77206421 C115.21367856 512.78814505 97.13101029 512.79442494 79.04829597 512.78522742 C77.11742275 512.78427184 75.18654951 512.78332873 73.25567627 512.78239822 C71.83090629 512.78170398 71.83090629 512.78170398 70.37735307 512.78099572 C63.70718636 512.77841334 57.0370451 512.78276056 50.36688232 512.78983688 C42.23012136 512.79827996 34.09344715 512.79591299 25.95669603 512.77999465 C21.8109895 512.77214956 17.66542721 512.76895554 13.51972198 512.77894211 C9.71496579 512.78796826 5.91048575 512.78282791 2.10575414 512.76700945 C0.09843796 512.76214062 -1.90889784 512.77178673 -3.91619301 512.78218114 C-30.31982354 512.6136788 -53.42512606 502.0121121 -71.83837891 483.38095093 C-72.56541016 482.66423218 -73.29244141 481.94751343 -74.04150391 481.20907593 C-91.2577246 463.17949048 -98.3457929 438.96422761 -98.21932983 414.54257202 C-98.222797 413.11313204 -98.2275686 411.68369475 -98.23351157 410.25426292 C-98.24590603 406.37209319 -98.23990465 402.49014786 -98.23055291 398.60797787 C-98.22371477 394.40340172 -98.23426706 390.19886193 -98.24249268 385.99429321 C-98.25578176 377.77562022 -98.25297389 369.55702976 -98.24425475 361.33835363 C-98.23745953 354.65452749 -98.23656941 347.97072436 -98.2398262 341.28689575 C-98.2402859 340.33298396 -98.2407456 339.37907216 -98.24121923 338.39625394 C-98.24217848 336.45796092 -98.24315112 334.5196679 -98.244137 332.58137488 C-98.25267677 314.43696518 -98.242879 296.29260107 -98.2267359 278.14819884 C-98.21333402 262.60401527 -98.21566251 247.05989892 -98.22949219 231.51571655 C-98.24557303 213.4330084 -98.25185292 195.35034012 -98.2426554 177.26762581 C-98.24169982 175.33675258 -98.24075671 173.40587934 -98.2398262 171.4750061 C-98.23936338 170.52515945 -98.23890055 169.57531279 -98.2384237 168.59668291 C-98.23584132 161.92651619 -98.24018854 155.25637493 -98.24726486 148.58621216 C-98.25570794 140.4494512 -98.25334097 132.31277698 -98.23742263 124.17602587 C-98.22957753 120.03031933 -98.22638352 115.88475705 -98.23637009 111.73905182 C-98.24539624 107.93429562 -98.24025589 104.12981558 -98.22443743 100.32508397 C-98.2195686 98.31776779 -98.22921471 96.310432 -98.23960912 94.30313683 C-98.07110678 67.89950629 -87.46954007 44.79420378 -68.83837891 26.38095093 C-68.12166016 25.65391968 -67.40494141 24.92688843 -66.66650391 24.17782593 C-48.63691846 6.96160524 -24.42165559 -0.12646307 0 0 Z M65.30224609 148.84188843 C64.67179382 149.46947052 64.04134155 150.09705261 63.39178467 150.74365234 C62.06707089 152.0663329 60.7461049 153.39277652 59.42871094 154.7227478 C57.41453097 156.7530178 55.38481405 158.76675562 53.35302734 160.77938843 C52.06430372 162.07009409 50.77651082 163.36172984 49.48974609 164.65438843 C48.88455139 165.25351044 48.27935669 165.85263245 47.65582275 166.46990967 C43.38179523 170.81597136 41.20242806 173.89172614 41.09912109 180.19345093 C42.83542762 190.40385815 56.54382845 199.88860889 63.62646484 206.94345093 C65.029155 208.34427308 66.43162237 209.74531836 67.83387756 211.14657593 C71.50259649 214.8114998 75.17430987 218.473409 78.84667969 222.13467407 C82.60258087 225.88029599 86.3556082 229.62879506 90.10888672 233.37704468 C97.45700663 240.71448046 104.80829689 248.04873098 112.16162109 255.38095093 C110.88653177 258.1769365 109.57384596 260.2146373 107.39099121 262.37190247 C106.82738388 262.93392365 106.26377655 263.49594482 105.68309021 264.07499695 C105.06692337 264.6792601 104.45075653 265.28352325 103.81591797 265.90609741 C103.16534927 266.55213928 102.51478058 267.19818115 101.84449768 267.86380005 C100.43289528 269.26445295 99.01902579 270.66282388 97.60316467 272.05917168 C95.36264814 274.26952906 93.12887129 276.48649496 90.89685059 278.70542908 C84.55003996 285.01248162 78.19063386 291.30678026 71.828125 297.59799194 C67.93568661 301.44772902 64.05057321 305.30473775 60.16969299 309.16612434 C58.6894066 310.63584012 57.20621237 312.10263314 55.72007751 313.56643486 C53.64233229 315.61300381 51.57393793 317.66860977 49.50732422 319.72640991 C48.89115738 320.32864883 48.27499054 320.93088776 47.64015198 321.55137634 C43.34404084 325.85689118 41.20222725 328.90397545 41.09912109 335.19345093 C42.61692449 344.31396421 53.35581531 351.79233189 59.66894531 358.12850952 C61.29745421 359.76684944 62.91498764 361.41556648 64.53271484 363.06454468 C65.57762967 364.11598035 66.62318009 365.16678483 67.66943359 366.21688843 C68.14663849 366.70644012 68.62384338 367.19599182 69.11550903 367.70037842 C73.20890911 371.76692826 76.20579781 373.34888825 81.97412109 373.44345093 C92.18452832 371.7071444 101.66927906 357.99874357 108.72412109 350.91610718 C110.12494325 349.51341702 111.52598852 348.11094965 112.92724609 346.70869446 C116.59216996 343.03997553 120.25407917 339.36826215 123.91534424 335.69589233 C127.66096616 331.93999115 131.40946523 328.18696382 135.15771484 324.4336853 C142.49515062 317.08556539 149.82940114 309.73427513 157.16162109 302.38095093 C159.95760667 303.65604025 161.99530747 304.96872607 164.15257263 307.15158081 C164.9956044 307.99699181 164.9956044 307.99699181 165.85566711 308.85948181 C166.45993027 309.47564865 167.06419342 310.09181549 167.68676758 310.72665405 C168.33280945 311.37722275 168.97885132 312.02779144 169.64447021 312.69807434 C171.04512311 314.10967674 172.44349405 315.52354623 173.83984184 316.93940735 C176.05019923 319.17992388 178.26716512 321.41370073 180.48609924 323.64572144 C186.79315179 329.99253207 193.08745043 336.35193816 199.37866211 342.71444702 C203.22839918 346.60688541 207.08540791 350.49199881 210.94679451 354.37287903 C212.41651029 355.85316542 213.88330331 357.33635965 215.34710503 358.82249451 C217.39367398 360.90023973 219.44927993 362.96863409 221.50708008 365.0352478 C222.109319 365.65141464 222.71155792 366.26758148 223.33204651 366.90242004 C227.63756135 371.19853118 230.68464562 373.34034477 236.97412109 373.44345093 C246.09463437 371.92564753 253.57300206 361.18675671 259.90917969 354.87362671 C261.54751961 353.24511781 263.19623664 351.62758439 264.84521484 350.00985718 C265.89665051 348.96494235 266.94745499 347.91939193 267.99755859 346.87313843 C268.73188614 346.15733109 268.73188614 346.15733109 269.48104858 345.42706299 C273.54759842 341.33366291 275.12955842 338.33677422 275.22412109 332.56845093 C273.48781457 322.3580437 259.77941374 312.87329297 252.69677734 305.81845093 C251.29408718 304.41762877 249.89161981 303.0165835 248.48936462 301.61532593 C244.8206457 297.95040206 241.14893231 294.28849285 237.4765625 290.62722778 C233.72066132 286.88160587 229.96763398 283.1331068 226.21435547 279.38485718 C218.86623556 272.0474214 211.5149453 264.71317088 204.16162109 257.38095093 C205.43671042 254.58496535 206.74939623 252.54726455 208.93225098 250.38999939 C209.77766197 249.54696762 209.77766197 249.54696762 210.64015198 248.68690491 C211.25631882 248.08264175 211.87248566 247.4783786 212.50732422 246.85580444 C213.15789291 246.20976257 213.80846161 245.5637207 214.47874451 244.89810181 C215.8903469 243.49744891 217.3042164 242.09907797 218.72007751 240.70273018 C220.96059405 238.49237279 223.19437089 236.2754069 225.4263916 234.05647278 C231.77320223 227.74942023 238.13260833 221.45512159 244.49511719 215.16390991 C248.38755558 211.31417284 252.27266898 207.45716411 256.15354919 203.59577751 C257.63383559 202.12606173 259.11702982 200.65926871 260.60316467 199.195467 C262.68090989 197.14889804 264.74930426 195.09329209 266.81591797 193.03549194 C267.43208481 192.43325302 268.04825165 191.8310141 268.68309021 191.21052551 C272.97920135 186.90501067 275.12101494 183.85792641 275.22412109 177.56845093 C273.70631769 168.44793765 262.96742687 160.96956996 256.65429688 154.63339233 C255.02578798 152.99505241 253.40825455 151.34633538 251.79052734 149.69735718 C250.74561252 148.64592151 249.7000621 147.59511703 248.65380859 146.54501343 C247.93800125 145.81068588 247.93800125 145.81068588 247.20773315 145.06152344 C243.11433308 140.9949736 240.11744438 139.4130136 234.34912109 139.31845093 C224.13871387 141.05475745 214.65396313 154.76315828 207.59912109 161.84579468 C206.19829894 163.24848484 204.79725366 164.65095221 203.39599609 166.0532074 C199.73107223 169.72192632 196.06916302 173.39363971 192.40789795 177.06600952 C188.66227603 180.8219107 184.91377696 184.57493804 181.16552734 188.32821655 C173.82809157 195.67633646 166.49384105 203.02762672 159.16162109 210.38095093 C156.36563552 209.1058616 154.32793472 207.79317579 152.17066956 205.61032104 C151.60864838 205.04671371 151.0466272 204.48310638 150.46757507 203.90242004 C149.86331192 203.2862532 149.25904877 202.67008636 148.63647461 202.0352478 C147.99043274 201.38467911 147.34439087 200.73411041 146.67877197 200.06382751 C145.27811908 198.65222512 143.87974814 197.23835562 142.48340034 195.82249451 C140.27304296 193.58197798 138.05607706 191.34820113 135.83714294 189.11618042 C129.5300904 182.76936979 123.23579176 176.4099637 116.94458008 170.04745483 C113.094843 166.15501645 109.23783427 162.26990304 105.37644768 158.38902283 C103.9067319 156.90873643 102.43993888 155.4255422 100.97613716 153.93940735 C98.92956821 151.86166213 96.87396225 149.79326776 94.81616211 147.72665405 C94.21392319 147.11048721 93.61168427 146.49432037 92.99119568 145.85948181 C89.2202393 142.0967616 86.16090048 139.76547393 80.72412109 139.06845093 C74.04406965 139.88309135 69.80935059 144.28894511 65.30224609 148.84188843 Z " fill="#030104" transform="translate(97.83837890625,-0.380950927734375)"/>
</svg>
