<?xml version="1.0" encoding="UTF-8"?>
<svg version="1.1" xmlns="http://www.w3.org/2000/svg" width="512" height="512">
<path d="M0 0 C1.37847883 -0.00445668 1.37847883 -0.00445668 2.78480572 -0.0090034 C5.8536117 -0.01765103 8.92237849 -0.01919532 11.99119568 -0.02069092 C14.19608645 -0.02532193 16.40097643 -0.03034697 18.60586548 -0.03573608 C24.58967092 -0.048836 30.57346515 -0.05530051 36.55728269 -0.05974674 C40.29976568 -0.06268175 44.04224564 -0.06678739 47.7847271 -0.07125092 C58.16393789 -0.08335556 68.54314654 -0.09373866 78.92236423 -0.09712601 C79.58577666 -0.09734557 80.24918909 -0.09756514 80.93270492 -0.09779136 C81.59763004 -0.09800964 82.26255515 -0.09822791 82.94762951 -0.09845281 C84.29483386 -0.09889626 85.64203821 -0.09934282 86.98924255 -0.09979248 C87.65749064 -0.10001391 88.32573872 -0.10023534 89.01423674 -0.10046348 C99.8293303 -0.10440702 110.6443563 -0.12184958 121.45942379 -0.145152 C132.58581563 -0.16892996 143.71217944 -0.1810734 154.83859771 -0.18249393 C161.0764547 -0.18353946 167.31421635 -0.18939353 173.55204964 -0.20731354 C179.42488754 -0.22385708 185.29755908 -0.22591926 191.17041206 -0.21717453 C193.31730598 -0.21640748 195.46420908 -0.22070271 197.61108017 -0.23063278 C220.87603048 -0.33186873 239.33804578 3.23518183 257.14524841 19.38262939 C261.77441923 24.09914306 265.0528006 29.17504325 268.04759216 35.01544189 C268.36953552 35.63878418 268.69147888 36.26212646 269.0231781 36.90435791 C274.70700113 48.7035535 275.13600223 60.4992051 275.10618591 73.31231689 C275.11075754 75.04720258 275.11606599 76.78208646 275.12207031 78.51696777 C275.13094876 82.1309552 275.12863583 85.74472097 275.11863708 89.35870361 C275.10710689 93.97414719 275.12744727 98.58883024 275.15655422 103.20417404 C275.17494646 106.77826734 275.17461857 110.35217891 275.1689167 113.92630768 C275.16876411 115.6278516 275.17475678 117.32940831 275.18720818 119.03090668 C275.29890264 136.77930358 275.29890264 136.77930358 268.92649841 144.16387939 C268.36833435 144.60989502 267.81017029 145.05591064 267.23509216 145.51544189 C266.67950623 145.97692627 266.12392029 146.43841064 265.55149841 146.91387939 C259.87368311 150.620395 254.27186583 150.890149 247.67259216 150.14044189 C241.23811974 148.13306011 236.49524539 144.22645715 233.06091309 138.41163635 C231.5023868 134.73940001 231.28871901 132.15322734 231.2719574 128.17633057 C231.26497833 127.5071611 231.25799927 126.83799164 231.25080872 126.14854431 C231.23092872 123.95170253 231.23133245 121.75533412 231.23118591 119.55841064 C231.21939985 118.01911674 231.20603263 116.47983421 231.19116211 114.94056702 C231.15504692 110.89495718 231.13480177 106.84944805 231.11961365 102.80371094 C231.09475562 96.34014658 231.05475184 89.87680504 230.99771309 83.41344643 C230.9815291 81.16851568 230.97761931 78.92379932 230.97470093 76.67881775 C231.02264931 61.68051887 231.02264931 61.68051887 223.67259216 49.14044189 C218.07119182 45.29025851 212.91965142 44.56200648 206.26048279 44.63250732 C205.34457619 44.62626736 204.42866959 44.6200274 203.48500824 44.61359835 C200.43268675 44.59771312 197.3811688 44.61025523 194.32884216 44.62286377 C192.13376908 44.61744068 189.93869965 44.61031697 187.74363708 44.60162354 C181.79325919 44.5834097 175.84315915 44.59044988 169.89277649 44.60313988 C163.66117106 44.61327749 157.42958917 44.60387207 151.19798279 44.59759521 C140.06377154 44.58985533 128.92966944 44.60227427 117.79547977 44.62263256 C107.7101839 44.64050243 97.62507222 44.63739795 87.53977966 44.61895752 C75.81426286 44.59752791 64.08885348 44.58959589 52.3633194 44.60140657 C46.1614337 44.60763788 39.95967476 44.60848696 33.75779724 44.59526062 C27.92674653 44.58369342 22.09604316 44.59174421 16.26502991 44.61483765 C14.12691321 44.62012002 11.98876721 44.61861907 9.85066223 44.60978699 C6.92828268 44.59882956 4.00701083 44.61259798 1.08470154 44.63250732 C0.24188881 44.62358444 -0.60092392 44.61466155 -1.46927643 44.60546827 C-7.75167501 44.688286 -13.24755202 46.13755693 -17.85655975 50.6313777 C-23.99003517 58.3631826 -23.61865453 68.0570599 -23.58137512 77.47540283 C-23.58605509 79.30276033 -23.58605509 79.30276033 -23.59082961 81.16703415 C-23.59739995 84.52707322 -23.59507146 87.88688689 -23.58885717 91.246912 C-23.58431656 94.87886941 -23.59132441 98.51080767 -23.59681702 102.14276123 C-23.60569552 109.24930021 -23.60379589 116.35579687 -23.59799173 123.46233749 C-23.59346917 129.23960466 -23.59286491 135.01685999 -23.59503937 140.79412842 C-23.59534583 141.61736815 -23.5956523 142.44060789 -23.59596805 143.28879428 C-23.59660752 144.96135489 -23.59725595 146.63391551 -23.59791324 148.30647612 C-23.60361201 163.97845557 -23.59706574 179.6504116 -23.5863125 195.32238722 C-23.5773774 208.76044842 -23.57892957 222.19847507 -23.58815002 235.63653564 C-23.59886065 251.25364882 -23.60306273 266.87074148 -23.5969255 282.48785782 C-23.59628842 284.154157 -23.59565968 285.82045618 -23.59503937 287.48675537 C-23.59473082 288.30653893 -23.59442227 289.12632249 -23.59410436 289.97094798 C-23.5923798 295.73916159 -23.59528738 301.50736215 -23.59999847 307.27557373 C-23.60561611 314.30811441 -23.6040723 321.34061047 -23.59343699 328.37314606 C-23.58819215 331.95907039 -23.58610321 335.54492039 -23.59273529 339.13084412 C-23.59982367 343.02243148 -23.5913417 346.91389795 -23.58137512 350.80548096 C-23.58806729 352.49620287 -23.58806729 352.49620287 -23.59489465 354.22108078 C-23.54934478 363.39500254 -23.17642101 372.34380631 -16.32740784 379.14044189 C-9.40780215 383.88111928 -2.52444283 383.70112048 5.60801697 383.65686226 C7.96359894 383.64412643 10.31802713 383.65561677 12.67356873 383.67289734 C16.82647115 383.69949587 20.97908643 383.70519699 25.13206482 383.70379639 C31.77753361 383.70156122 38.42264713 383.71588873 45.06797791 383.75938225 C47.37680631 383.76915436 49.68506528 383.76053919 51.99388123 383.75068665 C61.46818854 383.76478749 69.60074585 384.06859558 76.67259216 391.14044189 C80.9079028 397.26447214 82.42748079 402.71287703 81.67259216 410.14044189 C80.25691229 415.79275197 77.92462013 420.89137582 73.00071716 424.29669189 C67.35246718 427.67598675 63.24613713 428.26591088 56.73948669 428.30157471 C56.04938004 428.30653961 55.35927338 428.31150452 54.64825439 428.31661987 C52.36729421 428.33120784 50.08640383 428.33804184 47.80540466 428.34356689 C47.02117001 428.34639427 46.23693535 428.34922165 45.428936 428.3521347 C41.26959141 428.36712258 37.1102814 428.37635146 32.95091248 428.38067627 C28.69021187 428.38612564 24.42983656 428.41007907 20.16923714 428.43864822 C16.86428469 428.4574519 13.55940735 428.46248976 10.25440598 428.46401215 C8.68620421 428.46700513 7.11800267 428.47491745 5.54985428 428.48819733 C-15.99539678 428.65746103 -33.50782656 423.67194214 -49.80006409 408.89825439 C-54.4292349 404.18174073 -57.70761628 399.10584054 -60.70240784 393.26544189 C-61.0243512 392.64209961 -61.34629456 392.01875732 -61.67799377 391.37652588 C-66.57792957 381.20462213 -67.7713933 370.89439714 -67.71508789 359.72581482 C-67.7231662 357.77845593 -67.7231662 357.77845593 -67.7314077 355.79175645 C-67.74575382 352.22205383 -67.74165192 348.6525842 -67.73424089 345.08286941 C-67.72948437 341.21975011 -67.74204095 337.35667944 -67.7522583 333.49357605 C-67.76940374 325.93824599 -67.77029511 318.38299925 -67.7650454 310.8276548 C-67.7609942 304.68246619 -67.76245851 298.53730209 -67.76779366 292.39211464 C-67.76854208 291.51550649 -67.7692905 290.63889834 -67.7700616 289.7357263 C-67.77159318 287.95454467 -67.77313152 286.17336305 -67.77467657 284.39218143 C-67.78838644 267.70994061 -67.78297477 251.02774675 -67.77149136 234.345507 C-67.7615625 219.10828725 -67.77449632 203.871189 -67.79842555 188.63398799 C-67.82285173 172.96138105 -67.83241566 157.28883061 -67.82577282 141.61620504 C-67.82228816 132.82807177 -67.82446262 124.04003187 -67.84202385 115.25191307 C-67.85679 107.77015821 -67.85732399 100.28856247 -67.83995294 92.80681058 C-67.83147634 88.99524274 -67.82921065 85.18395859 -67.84460449 81.37240601 C-67.93301418 57.75760303 -66.93894475 37.58545567 -49.85939026 19.39337158 C-36.28440191 5.79792186 -19.02379628 -0.01940605 0 0 Z " fill="#000000" transform="translate(152.32740783691406,41.85955810546875)"/>
<path d="M0 0 C0.6916626 -0.01401855 1.3833252 -0.02803711 2.09594727 -0.04248047 C12.80391142 0.0551948 21.34469159 4.55269726 30.4375 9.8125 C32.06365234 10.74195435 32.06365234 10.74195435 33.72265625 11.69018555 C35.93898274 12.96155279 38.15222629 14.23830998 40.36230469 15.52050781 C43.33951778 17.24578327 46.32855915 18.94855392 49.3203125 20.6484375 C64.07787391 29.13188249 74.80857698 37.36112432 79.9375 54.375 C84.22368038 75.71752704 71.7880804 93.12187624 61.41015625 110.5625 C58.01258926 116.28216261 54.69514483 122.04766081 51.375 127.8125 C50.73739746 128.91907959 50.09979492 130.02565918 49.44287109 131.16577148 C48.13439492 133.4370547 46.82612839 135.7084587 45.51806641 137.97998047 C42.36917946 143.4466998 39.21566736 148.91074887 36.0625 154.375 C34.8124765 156.54165311 33.56247653 158.70831979 32.3125 160.875 C29.8125 165.20833333 27.3125 169.54166667 24.8125 173.875 C24.19334717 174.94830566 23.57419434 176.02161133 22.9362793 177.12744141 C21.69072429 179.28618703 20.44479546 181.44471701 19.19848633 183.60302734 C16.00232156 189.13914426 12.81345894 194.67927343 9.63671875 200.2265625 C-1.54169943 219.72877034 -1.54169943 219.72877034 -6.9375 228.5625 C-7.2981958 229.16723145 -7.6588916 229.77196289 -8.03051758 230.39501953 C-13.03191601 238.44089723 -19.87829045 243.67648429 -27.75 248.75 C-29.61074952 249.96343059 -31.47142295 251.17697787 -33.33203125 252.390625 C-34.80857178 253.3487207 -34.80857178 253.3487207 -36.31494141 254.32617188 C-39.03854837 256.11323283 -41.74067212 257.9279232 -44.43266296 259.76217651 C-46.70418876 261.30806782 -48.98457084 262.84060215 -51.26596069 264.37188721 C-52.88910166 265.46733622 -54.50198549 266.57793567 -56.11450195 267.68896484 C-68.3295128 275.8297436 -80.60750744 279.40539589 -95.19140625 276.90234375 C-105.06543091 274.32180835 -114.23979836 268.5062821 -120.4375 260.375 C-130.98733578 242.32169574 -128.65000301 224.22381691 -127.37548828 204.04345703 C-127.18651788 200.98409989 -127.02097823 197.92398598 -126.85546875 194.86328125 C-125.72867498 175.82000267 -125.72867498 175.82000267 -121.4375 167.375 C-121.06496094 166.61348633 -120.69242187 165.85197266 -120.30859375 165.06738281 C-119.11653473 162.7377193 -117.8555474 160.46253937 -116.5625 158.1875 C-116.0883667 157.33929688 -115.6142334 156.49109375 -115.12573242 155.6171875 C-110.83441503 147.98078994 -106.41486442 140.41793481 -101.98291016 132.86254883 C-97.41020342 125.06571937 -92.91086724 117.22900971 -88.4375 109.375 C-82.89813965 99.65347406 -77.30374681 89.9660447 -71.65405273 80.30810547 C-67.41132259 73.05287473 -63.19876155 65.78075593 -59 58.5 C-58.38165283 57.43120605 -57.76330566 56.36241211 -57.1262207 55.26123047 C-54.21125162 50.2170962 -51.31145829 45.16603491 -48.46757507 40.08151245 C-47.47838607 38.31492038 -46.48400935 36.55134959 -45.48803711 34.78857422 C-44.24802094 32.59028513 -43.01757945 30.3865535 -41.79907227 28.17626953 C-35.71997804 17.44663818 -28.67058324 8.82079875 -17.4375 3.375 C-16.76589844 3.03597656 -16.09429687 2.69695312 -15.40234375 2.34765625 C-10.3824666 0.24878661 -5.36879815 0.07390676 0 0 Z M0.5625 44.375 C-4.14048121 51.14114191 -8.21519821 58.16072497 -12.1875 65.375 C-16.17925824 72.56392621 -20.17748644 79.74136563 -24.375 86.8125 C-28.51067969 93.78269835 -32.57871067 100.79001012 -36.625 107.8125 C-37.26300537 108.91972412 -37.90101074 110.02694824 -38.55834961 111.16772461 C-39.86639477 113.43837068 -41.17425448 115.70912358 -42.48193359 117.97998047 C-45.63082055 123.44669982 -48.784356 128.91073537 -51.9375 134.375 C-53.17839941 136.52603359 -54.41928478 138.67707529 -55.66015625 140.828125 C-57.91572597 144.73785765 -60.17182104 148.64728606 -62.42868042 152.55627441 C-63.43041394 154.29136728 -64.43202189 156.02653257 -65.43359375 157.76171875 C-66.67683719 159.91550668 -67.92030572 162.06916471 -69.1640625 164.22265625 C-70.32398567 166.2323209 -71.47552 168.24685049 -72.61865234 170.26611328 C-73.88792198 172.43562731 -75.22234867 174.56775064 -76.60400391 176.66748047 C-82.46129615 185.72882902 -83.72699672 193.32797337 -83.9375 204 C-83.99406847 205.42461518 -84.05395615 206.8491025 -84.1171875 208.2734375 C-84.44795649 216.304314 -84.50643783 224.33799746 -84.4375 232.375 C-62.83354887 224.63008965 -43.32580222 208.47154594 -33.51953125 187.98046875 C-33.02018066 186.88911621 -32.52083008 185.79776367 -32.00634766 184.67333984 C-29.32864701 179.04375133 -26.10684328 173.73797611 -22.9375 168.375 C-21.68497044 166.20979466 -20.43496646 164.04312635 -19.1875 161.875 C-11.6875 148.875 -4.1875 135.875 3.3125 122.875 C3.93189453 121.80137207 4.55128906 120.72774414 5.18945312 119.62158203 C6.4329051 117.46628689 7.67639436 115.31101327 8.91992188 113.15576172 C11.80712875 108.15162326 14.6940043 103.1472948 17.57946777 98.14215088 C18.58869104 96.39158759 19.59803836 94.64109589 20.60742188 92.890625 C21.8641766 90.71107835 23.12070586 88.53140168 24.37695312 86.3515625 C28.41666442 79.34638717 32.4818684 72.35641493 36.5625 65.375 C32.91951897 62.31368926 29.18612935 59.87508471 25.0546875 57.51953125 C24.447388 57.17242599 23.8400885 56.82532074 23.21438599 56.46769714 C21.9398367 55.74047674 20.66409018 55.01535099 19.38720703 54.29223633 C17.43342837 53.18519295 15.48406616 52.07066611 13.53515625 50.95507812 C7.25096084 47.23109744 7.25096084 47.23109744 0.5625 44.375 Z " fill="#000000" transform="translate(391.4375,220.625)"/>
<path d="M0 0 C1.17329361 -0.00852997 2.34658722 -0.01705994 3.55543518 -0.02584839 C5.47327316 -0.02448883 5.47327316 -0.02448883 7.42985535 -0.02310181 C8.79690924 -0.02908958 10.16395976 -0.0358957 11.53100586 -0.04345703 C15.23775843 -0.06110019 18.94441861 -0.06581173 22.65120912 -0.0670886 C24.96947514 -0.06851186 27.2877178 -0.07278477 29.60597801 -0.07808304 C37.70060589 -0.09657859 45.79516797 -0.10475435 53.88981628 -0.10317993 C61.42375899 -0.10197904 68.95741497 -0.12307207 76.49128515 -0.15466726 C82.96875342 -0.18085975 89.44612822 -0.19154597 95.92364901 -0.19026911 C99.78826049 -0.1897603 103.65261715 -0.19539844 107.51717567 -0.21662521 C111.1542841 -0.23605771 114.79089596 -0.23609842 118.42802238 -0.22159195 C120.38977858 -0.21851989 122.35153508 -0.2351457 124.31321716 -0.25247192 C132.94621043 -0.19118841 138.57927141 0.78815232 144.95011902 7.01742554 C148.94683101 12.95539763 151.34547774 18.97909619 150.13761902 26.26742554 C147.99336022 33.7595679 143.98516766 38.33474215 137.38991928 42.32475376 C134.5724082 43.50398738 132.37362264 43.52783206 129.31956482 43.5415802 C127.53644394 43.55654289 127.53644394 43.55654289 125.71730042 43.57180786 C123.7660173 43.57280487 123.7660173 43.57280487 121.77531433 43.57382202 C120.38870295 43.58144532 119.00209578 43.58987312 117.61549377 43.5990448 C113.85084257 43.62098314 110.08627259 43.62978807 106.32156467 43.63487124 C103.96762443 43.63851638 101.6137054 43.64475733 99.25977325 43.65187263 C91.04196235 43.67636728 82.82421455 43.68941853 74.60636902 43.69296265 C66.95594444 43.69659535 59.30592169 43.72647132 51.65561986 43.76836723 C45.08050774 43.80310775 38.50552851 43.81851175 31.93032527 43.81920868 C28.00638858 43.82000039 24.08286103 43.82868899 20.15901947 43.85720634 C16.46521848 43.88345118 12.77216388 43.8855573 9.07831192 43.8695507 C7.08551073 43.86688185 5.09272367 43.88887743 3.10005188 43.91174316 C-5.19467421 43.84425571 -10.34291908 42.58068314 -16.37408066 36.82469845 C-20.75121881 32.02544224 -22.38156063 26.94458885 -22.17097473 20.47836304 C-21.17479895 13.34120493 -18.35923017 7.90760215 -12.74128723 3.42367554 C-8.52452097 0.82874246 -4.92861933 0.01623654 0 0 Z " fill="#000000" transform="translate(191.8623809814453,148.73257446289063)"/>
<path d="M0 0 C0.84376694 -0.00571014 1.68753387 -0.01142029 2.55686951 -0.01730347 C3.9330822 -0.01898026 3.9330822 -0.01898026 5.33709717 -0.02069092 C6.30994156 -0.02565582 7.28278595 -0.03062073 8.28511047 -0.03573608 C11.50394397 -0.05034216 14.72272816 -0.05715746 17.94158936 -0.06268311 C20.18115236 -0.06843623 22.42071534 -0.07419394 24.66027832 -0.07995605 C29.35772938 -0.09046189 34.05516335 -0.09630717 38.75262451 -0.09979248 C44.76263827 -0.10527357 50.77242506 -0.12929532 56.78236771 -0.15776443 C61.40985772 -0.17641783 66.03729338 -0.18159788 70.66481781 -0.18312836 C72.8799234 -0.18614975 75.09502814 -0.19416089 77.31009674 -0.20731354 C80.41432292 -0.22442875 83.51799878 -0.22248015 86.62225342 -0.21600342 C87.53163162 -0.2252182 88.44100983 -0.23443298 89.37794495 -0.243927 C96.1085173 -0.20008892 101.8295009 0.7578623 107.19940186 5.15606689 C112.46241925 11.29983414 115.07493845 15.87132506 114.61346436 24.14044189 C113.6118681 31.65241377 110.3545033 36.00097693 104.71502686 40.87872314 C99.07869874 44.47661639 93.36146473 44.43265074 86.91278076 44.4151001 C85.93964432 44.42021103 84.96650787 44.42532196 83.96388245 44.43058777 C80.75586753 44.44445606 77.54806814 44.44352897 74.34002686 44.44122314 C72.10332154 44.44511174 69.86661696 44.44944674 67.62991333 44.45420837 C62.94439296 44.46166476 58.25894794 44.4613836 53.57342529 44.45611572 C47.5791423 44.45032356 41.58516854 44.46724904 35.59093666 44.4904604 C30.97201748 44.50521708 26.35317243 44.50606676 21.73423386 44.50295067 C19.52471683 44.50346296 17.31519555 44.50868333 15.10570145 44.51876259 C12.01124432 44.5311462 8.9173851 44.52432333 5.82293701 44.51275635 C4.9167009 44.52040009 4.01046478 44.52804382 3.07676697 44.53591919 C-4.71956611 44.47174558 -11.55691237 42.84506517 -17.26153564 37.14044189 C-21.49684628 31.01641165 -23.01642427 25.56800676 -22.26153564 18.14044189 C-20.84585577 12.48813182 -18.51356362 7.38950797 -13.58966064 3.98419189 C-9.00295587 1.24000955 -5.28186095 0.02150142 0 0 Z " fill="#000000" transform="translate(192.26153564453125,233.85955810546875)"/>
<path d="M0 0 C1.17512146 -0.0127597 2.35024292 -0.02551941 3.56097412 -0.03866577 C4.8276593 -0.04089142 6.09434448 -0.04311707 7.39941406 -0.04541016 C8.70654358 -0.05206696 10.0136731 -0.05872375 11.3604126 -0.06558228 C14.12767842 -0.07754731 16.89481952 -0.08126412 19.66210938 -0.08007812 C23.19045708 -0.07987544 26.71799473 -0.10712717 30.24615097 -0.14162254 C33.63058263 -0.16935647 37.01487044 -0.16804414 40.39941406 -0.17041016 C41.65800232 -0.18478119 42.91659058 -0.19915222 44.21331787 -0.21395874 C52.23696022 -0.17239075 58.23035557 0.46783674 64.22363281 6.29052734 C64.67867188 6.95052734 65.13371094 7.61052734 65.60253906 8.29052734 C66.075625 8.95052734 66.54871094 9.61052734 67.03613281 10.29052734 C69.9677313 15.48422431 69.72781251 21.49396081 69.16503906 27.29052734 C67.41268833 33.46598023 63.4847568 37.81778021 58.16503906 41.29052734 C54.44564753 43.03477395 51.49590759 43.54967749 47.40014648 43.58105469 C45.69763985 43.60019424 45.69763985 43.60019424 43.96073914 43.61972046 C42.13407463 43.62305893 42.13407463 43.62305893 40.27050781 43.62646484 C38.37852409 43.63645004 38.37852409 43.63645004 36.44831848 43.64663696 C33.7810758 43.65675682 31.11424081 43.66232023 28.44702148 43.66113281 C25.04760585 43.66092995 21.64902932 43.68820614 18.24981213 43.72267723 C14.98590978 43.7504135 11.7220119 43.74909869 8.45800781 43.75146484 C6.64045235 43.77302139 6.64045235 43.77302139 4.78617859 43.79501343 C-3.76010143 43.74906387 -9.34232402 42.70555011 -15.64746094 36.54052734 C-19.64417293 30.60255525 -22.04281966 24.57885669 -20.83496094 17.29052734 C-18.69103111 9.79953442 -14.68355825 5.22277913 -8.08831787 1.23422241 C-5.27009578 0.05396453 -3.05446361 0.02254469 0 0 Z " fill="#000000" transform="translate(190.8349609375,319.70947265625)"/>
</svg>
