<?xml version="1.0" encoding="UTF-8"?>
<svg version="1.1" xmlns="http://www.w3.org/2000/svg" width="512" height="512">
<path d="M0 0 C0.7083103 -0.00367669 1.4166206 -0.00735338 2.14639485 -0.01114148 C4.51428084 -0.02213344 6.88212288 -0.02601459 9.25003052 -0.02983093 C10.95054767 -0.03609925 12.65106345 -0.04274637 14.35157776 -0.04974365 C19.93376722 -0.07075237 25.51595683 -0.08114686 31.09817505 -0.09111023 C33.02483255 -0.09515975 34.95148991 -0.09927673 36.87814713 -0.10346031 C45.93638211 -0.12250934 54.99460899 -0.13673787 64.05286014 -0.14507228 C74.48104952 -0.15482726 84.90902565 -0.18110246 95.33713996 -0.22157317 C103.41384326 -0.25183309 111.49048581 -0.2665507 119.56724465 -0.26985329 C124.38278497 -0.27219359 129.19809742 -0.28101943 134.01357651 -0.30631447 C138.55268983 -0.32977197 143.09142816 -0.3337582 147.63058662 -0.32355309 C149.28523705 -0.32306179 150.93990705 -0.32926044 152.59449959 -0.34310913 C181.04624693 -0.56767673 200.87323793 11.39102698 220.74227238 30.8721447 C224.62427553 34.69780595 228.49429483 38.53540948 232.3598938 42.37763977 C233.18899702 43.20141932 234.01810024 44.02519886 234.8723278 44.87394142 C239.25606518 49.23110251 243.63622163 53.59183098 248.01394653 57.95503235 C251.61183031 61.53956953 255.21684444 65.11669279 258.82839966 68.68745422 C263.22136878 73.03083625 267.60168217 77.38661686 271.97346306 81.75132179 C273.62800028 83.3991967 275.28674828 85.04285622 276.9499836 86.68195152 C297.66097369 107.10923235 310.15323319 127.85412852 310.39105129 157.52271271 C310.39836883 161.17825323 310.38618895 164.8334459 310.37356567 168.4889679 C310.37899365 171.13677876 310.38597706 173.78454499 310.39480591 176.43234253 C310.41248979 182.84628941 310.40879677 189.26004789 310.39715534 195.67400181 C310.38808105 200.89187535 310.38691418 206.1096965 310.39125061 211.32757568 C310.39186354 212.07333539 310.39247647 212.81909509 310.39310798 213.58745357 C310.39438702 215.10297161 310.39568388 216.61848963 310.39699835 218.13400763 C310.40837446 232.3083057 310.39533725 246.48249988 310.37379688 260.6567809 C310.35592859 272.78986004 310.35903353 284.92278604 310.37747192 297.05586243 C310.39893133 311.18325646 310.4072761 325.31055971 310.39502287 339.43796778 C310.39374882 340.94756729 310.39249133 342.45716682 310.39125061 343.96676636 C310.39032496 345.08057394 310.39032496 345.08057394 310.3893806 346.21688268 C310.38594287 351.42181216 310.39172181 356.62668352 310.40116882 361.831604 C310.41244677 368.18426315 310.40922816 374.53672489 310.38804585 380.88936174 C310.3776125 384.12377793 310.37547332 387.35780256 310.38664246 390.59222603 C310.4380903 407.01182124 309.93691088 421.72323964 302.04348755 436.52217102 C301.52202148 437.52510193 301.52202148 437.52510193 300.99002075 438.54829407 C298.13645242 443.89849088 294.95698155 448.66145303 290.85598755 453.14717102 C290.05547974 454.03920227 289.25497192 454.93123352 288.4302063 455.85029602 C279.03672266 465.80113542 267.88994053 472.8330088 254.85598755 477.14717102 C253.81410011 477.51842149 253.81410011 477.51842149 252.75116444 477.89717197 C241.68997044 481.27527734 230.23037397 480.57540983 218.78250122 480.55122375 C216.34204293 480.55693239 213.90158731 480.56389855 211.46113586 480.57202148 C205.54211525 480.58806 199.62319282 480.59006428 193.70416208 480.58480858 C188.8881094 480.58075186 184.07208797 480.58222818 179.25603676 480.58755684 C178.56815317 480.58830526 177.88026958 480.58905368 177.17154104 480.58982478 C175.77367541 480.59135641 174.37580979 480.59289476 172.97794417 480.59443975 C159.89528731 480.60813936 146.81269039 480.6027453 133.73003493 480.59125454 C121.79073074 480.58132758 109.85158165 480.594258 97.91230138 480.61818873 C85.62068808 480.64263793 73.32914684 480.65217318 61.03750974 480.64553601 C54.1496726 480.64205632 47.26195458 480.64419246 40.37413597 480.66178703 C33.89382926 480.6781368 27.41374474 480.67323718 20.93344307 480.65448189 C18.56443715 480.65081162 16.1954091 480.65385848 13.82642365 480.66436768 C-2.03126251 480.72930688 -16.23134794 479.95539589 -30.51901245 472.33467102 C-31.18763306 471.98702698 -31.85625366 471.63938293 -32.5451355 471.28120422 C-37.89533231 468.42763589 -42.65829446 465.24816503 -47.14401245 461.14717102 C-48.0360437 460.34666321 -48.92807495 459.5461554 -49.84713745 458.72138977 C-63.28697499 446.03433001 -72.86758992 428.42994543 -74.42465675 409.78698003 C-74.53093852 406.07825234 -74.54883101 402.37977801 -74.5316925 398.66955566 C-74.53587423 397.24270422 -74.54135632 395.81585611 -74.54801232 394.38901407 C-74.56237589 390.50007354 -74.55825092 386.61134658 -74.5508455 382.72239482 C-74.54609341 378.51571572 -74.5586417 374.30908147 -74.56886292 370.10241699 C-74.58601685 361.87331172 -74.58689795 353.64428293 -74.58165001 345.41516443 C-74.57760045 338.72268429 -74.57906119 332.03022665 -74.58439827 325.33774757 C-74.58514669 324.38342931 -74.58589511 323.42911104 -74.58666622 322.44587404 C-74.58819777 320.50685641 -74.58973612 318.56783879 -74.59128118 316.62882117 C-74.6049941 298.4643982 -74.59957721 280.30001835 -74.58809597 262.13559637 C-74.57816655 245.5404099 -74.59110138 228.94533496 -74.61503016 212.35016569 C-74.63944953 195.2853845 -74.64902196 178.22065521 -74.64237744 161.15585691 C-74.6388913 151.58524762 -74.64107709 142.01472406 -74.65862846 132.44412804 C-74.67338603 124.29629759 -74.67393966 116.14861324 -74.65655755 108.00078555 C-74.64807405 103.84898108 -74.64583259 99.69743721 -74.66120911 95.54564667 C-74.67514611 91.73515013 -74.67017903 87.92513522 -74.65096987 84.1146659 C-74.64548649 82.10421741 -74.65940582 80.09374383 -74.67432398 78.08334321 C-74.57802617 66.03695369 -72.03415663 54.47125401 -66.33151245 43.77217102 C-65.98821899 43.107901 -65.64492554 42.44363098 -65.29122925 41.75923157 C-61.31759757 34.27542145 -56.3507394 27.92087051 -50.14401245 22.14717102 C-49.48272339 21.48072571 -48.82143433 20.8142804 -48.1401062 20.12763977 C-35.36744195 7.77582113 -17.85567068 0.06025327 0 0 Z M-30.39401245 49.45967102 C-41.36034095 62.28284797 -42.29841106 77.12727353 -42.27772522 93.29042053 C-42.27999078 94.59567476 -42.28225633 95.90092898 -42.28459054 97.24573636 C-42.29067835 100.84881426 -42.29057853 104.45186885 -42.28939617 108.05495071 C-42.28919139 111.94874169 -42.29471821 115.84252534 -42.29945374 119.73631287 C-42.30774423 127.35753576 -42.31050785 134.97875091 -42.31106611 142.59997794 C-42.31154203 148.79768894 -42.31360054 154.99539741 -42.31676674 161.1931076 C-42.32556889 178.78209103 -42.33018679 196.37106837 -42.32943626 213.96005401 C-42.32939631 214.90738856 -42.32935635 215.85472311 -42.32931519 216.83076477 C-42.3292743 217.77926195 -42.32923342 218.72775913 -42.3291913 219.70499864 C-42.32878494 235.07305457 -42.33835314 250.44108598 -42.35245355 265.80913481 C-42.36683247 281.6059276 -42.3737229 297.40270845 -42.37285978 313.19950795 C-42.37252833 322.06137328 -42.37525228 330.92321291 -42.38603783 339.78507233 C-42.39516278 347.33059465 -42.39730172 354.87607962 -42.3905284 362.42160508 C-42.38727327 366.26726031 -42.38716992 370.11284395 -42.39588165 373.95849228 C-42.40525122 378.13771079 -42.39894441 382.31676501 -42.39125061 386.49598694 C-42.39639417 387.69708438 -42.40153774 388.89818182 -42.40683717 390.13567615 C-42.33590275 407.64286349 -39.45153463 421.53310543 -27.04244995 434.31123352 C-14.86010186 445.80482695 -0.82119163 448.31083041 15.35470581 448.28088379 C16.26793901 448.28314935 17.1811722 448.2854149 18.12207913 448.28774911 C21.15937164 448.29404142 24.19661897 448.29326283 27.23391724 448.29243469 C29.42102109 448.29542916 31.60812441 448.29883236 33.79522705 448.3026123 C39.72100065 448.31142724 45.6467598 448.31378937 51.57253933 448.31442809 C55.27917823 448.31514002 58.98581348 448.31727706 62.69245148 448.31992531 C74.96903276 448.32869389 87.24560525 448.33334605 99.52218971 448.33259483 C100.51306417 448.3325349 100.51306417 448.3325349 101.5239563 448.33247375 C102.51605354 448.33241243 102.51605354 448.33241243 103.52819315 448.33234987 C113.57432032 448.33196892 123.62041639 448.33976257 133.66653442 448.35298157 C145.35618981 448.36831011 157.04582221 448.37673878 168.73548818 448.37601835 C174.91457398 448.37576399 181.09361993 448.3785809 187.27269745 448.3891964 C193.08725817 448.39891342 198.90174124 448.3989319 204.71630478 448.39167976 C206.8426538 448.39063839 208.96900775 448.39297004 211.09534836 448.39904022 C231.3705944 448.45314331 248.70838191 447.91506241 264.02005005 433.04560852 C275.76989017 420.59165813 278.02290934 406.31229844 277.98297119 389.82429504 C277.98531118 388.32157995 277.98531118 388.32157995 277.98769844 386.78850698 C277.991668 383.45166623 277.98853451 380.11487145 277.98538208 376.7780304 C277.98673791 374.37754286 277.98851887 371.97705554 277.99069214 369.5765686 C277.99477252 363.74540231 277.9941837 357.91425048 277.9912795 352.08308375 C277.98901634 347.34176505 277.9887169 342.60044995 277.98980331 337.85913086 C277.98995655 337.18298527 277.99010978 336.50683968 277.99026766 335.81020483 C277.9905874 334.43640522 277.99091161 333.06260561 277.99124025 331.688806 C277.99408824 318.8223944 277.99081869 305.95598995 277.98543988 293.08957952 C277.98097246 282.06206088 277.98174859 271.03455276 277.98635864 260.0070343 C277.99171642 247.18502393 277.99381362 234.36301981 277.99074638 221.54100847 C277.99042785 220.17240938 277.99011348 218.80381028 277.98980331 217.43521118 C277.98964904 216.76192546 277.98949476 216.08863975 277.98933581 215.39495143 C277.98847427 210.66218451 277.98992572 205.92942158 277.99228287 201.19665527 C277.99517508 194.82071398 277.99316103 188.44479253 277.98738861 182.06885338 C277.98606826 179.73119324 277.98644281 177.39353143 277.98865128 175.05587196 C277.99139128 171.86057455 277.98794681 168.6653404 277.98297119 165.470047 C277.98631727 164.08865547 277.98631727 164.08865547 277.98973095 162.67935705 C278.26368862 153.15431064 278.26368862 153.15431064 275.85598755 144.14717102 C274.9806134 144.14352539 274.10523926 144.13987976 273.20333862 144.13612366 C264.90694937 144.09807484 256.61094649 144.04103254 248.31483078 143.96326828 C244.050866 143.92395312 239.78710281 143.89168718 235.52297974 143.87617493 C231.39892496 143.86090211 227.27542499 143.82627194 223.15161896 143.778862 C221.58741358 143.76415671 220.02312894 143.75613632 218.45885468 143.75528717 C203.17377854 143.73866283 191.02189207 140.81370289 179.6333313 130.04560852 C171.29252358 121.22150166 166.66595472 110.95905802 166.53713989 98.74311829 C166.52207146 97.68819939 166.52207146 97.68819939 166.50669861 96.61196899 C166.47607581 94.31251259 166.45889046 92.01317145 166.44192505 89.71357727 C166.42319651 88.10931419 166.40362186 86.50506079 166.38323975 84.90081787 C166.33209044 80.69728826 166.29237314 76.49372678 166.25509644 72.29005432 C166.21494843 67.99299851 166.16390555 63.69607334 166.11380005 59.39912415 C166.01724465 50.98189595 165.93277523 42.56460266 165.85598755 34.14717102 C157.61793551 32.03483576 149.62044023 31.86171596 141.15750122 31.88838196 C139.69930345 31.88566648 138.24110705 31.88210244 136.78291321 31.87776184 C132.84883901 31.86869932 128.91487055 31.87215723 124.98079467 31.87852001 C120.84424431 31.88361487 116.70770248 31.87887866 112.57115173 31.87574768 C105.62368155 31.87211692 98.67625399 31.87688244 91.72879028 31.88642883 C83.72629692 31.89729879 75.72390561 31.89379482 67.72141474 31.88277602 C60.82339366 31.87366231 53.92540307 31.87243812 47.0273779 31.87765336 C42.91963966 31.88075236 38.81194916 31.88124019 34.7042141 31.87458038 C30.83731824 31.86874828 26.97055215 31.87290954 23.10367012 31.8843689 C21.69491159 31.886985 20.2861419 31.88630351 18.877388 31.88184357 C-1.04686731 31.82464446 -16.37929964 34.60512524 -30.39401245 49.45967102 Z M197.85598755 56.14717102 C197.78136291 61.67896129 197.72716257 67.21045308 197.69119263 72.74263 C197.67618422 74.62126272 197.65577102 76.49986086 197.62966919 78.37837219 C197.59293369 81.09175695 197.57618148 83.80467512 197.5630188 86.51826477 C197.54753494 87.34676437 197.53205109 88.17526398 197.51609802 89.02886963 C197.51436351 95.15381926 198.17440804 101.79324737 202.13121033 106.74212646 C208.2146292 112.28008892 215.53929616 112.43785876 223.2895813 112.34248352 C224.16751846 112.33965363 225.04545563 112.33682373 225.94999695 112.33390808 C228.731304 112.322787 231.51227918 112.29769774 234.29348755 112.27217102 C236.18866516 112.26213077 238.08384787 112.25300676 239.97903442 112.24482727 C244.60481172 112.22287417 249.23034353 112.18840062 253.85598755 112.14717102 C248.48704605 105.62827225 242.55829601 99.70359513 236.5864563 93.74482727 C235.4986893 92.65638566 234.4110707 91.56779573 233.32359314 90.47906494 C231.0584227 88.21242867 228.79147434 85.94759018 226.52322388 83.68403625 C223.60989906 80.77644915 220.70114184 77.86434015 217.79366589 74.9509058 C215.55564793 72.70928687 213.31526943 70.47003946 211.07415199 68.2315197 C209.99966257 67.15769872 208.92591925 66.08313066 207.85292625 65.00781441 C206.3617973 63.51416215 204.86752932 62.02372506 203.37234497 60.53413391 C202.52218307 59.68476761 201.67202118 58.83540131 200.7960968 57.96029663 C199.17679488 56.03337227 199.17679488 56.03337227 197.85598755 56.14717102 Z " fill="#000000" transform="translate(138.14401245117188,15.852828979492188)"/>
<path d="M0 0 C4.64033987 2.15444351 8.03598049 5.2220809 10 10 C10.54851096 14.13732054 10.46541986 18.23134214 10.390625 22.3984375 C10.38496521 23.58853424 10.37930542 24.77863098 10.37347412 26.00479126 C10.35113451 29.79527486 10.30093963 33.58480345 10.25 37.375 C10.22993201 39.94920507 10.21168177 42.523425 10.1953125 45.09765625 C10.15127745 51.39876178 10.08438805 57.69931265 10 64 C10.66319244 63.99111755 11.32638489 63.98223511 12.00967407 63.9730835 C18.92026134 63.88450044 25.83068696 63.82421985 32.74169922 63.78027344 C35.31989088 63.76017437 37.89803704 63.73289059 40.47607422 63.69824219 C44.18468461 63.64965153 47.89269156 63.62701342 51.6015625 63.609375 C52.75177887 63.58872986 53.90199524 63.56808472 55.08706665 63.54681396 C61.38852193 63.54505226 65.23604813 63.72116563 70 68 C73.62833663 71.81930172 74.31000458 74.88279006 74.5 80 C74.31000458 85.11720994 73.62833663 88.18069828 70 92 C64.37931362 97.04832683 58.89755008 96.5215801 51.6015625 96.390625 C50.41146576 96.38496521 49.22136902 96.37930542 47.99520874 96.37347412 C44.20472514 96.35113451 40.41519655 96.30093963 36.625 96.25 C34.05079493 96.22993201 31.476575 96.21168177 28.90234375 96.1953125 C22.60123822 96.15127745 16.30068735 96.08438805 10 96 C10.00888245 96.66319244 10.01776489 97.32638489 10.0269165 98.00967407 C10.11549956 104.92026134 10.17578015 111.83068696 10.21972656 118.74169922 C10.23982563 121.31989088 10.26710941 123.89803704 10.30175781 126.47607422 C10.35034847 130.18468461 10.37298658 133.89269156 10.390625 137.6015625 C10.41127014 138.75177887 10.43191528 139.90199524 10.45318604 141.08706665 C10.45494774 147.38852193 10.27883437 151.23604813 6 156 C2.18069828 159.62833663 -0.88279006 160.31000458 -6 160.5 C-11.11720994 160.31000458 -14.18069828 159.62833663 -18 156 C-23.04832683 150.37931362 -22.5215801 144.89755008 -22.390625 137.6015625 C-22.38496521 136.41146576 -22.37930542 135.22136902 -22.37347412 133.99520874 C-22.35113451 130.20472514 -22.30093963 126.41519655 -22.25 122.625 C-22.22993201 120.05079493 -22.21168177 117.476575 -22.1953125 114.90234375 C-22.15127745 108.60123822 -22.08438805 102.30068735 -22 96 C-22.99478867 96.01332367 -22.99478867 96.01332367 -24.00967407 96.0269165 C-30.92026134 96.11549956 -37.83068696 96.17578015 -44.74169922 96.21972656 C-47.31989088 96.23982563 -49.89803704 96.26710941 -52.47607422 96.30175781 C-56.18468461 96.35034847 -59.89269156 96.37298658 -63.6015625 96.390625 C-65.32688705 96.42159271 -65.32688705 96.42159271 -67.08706665 96.45318604 C-73.38852193 96.45494774 -77.23604813 96.27883437 -82 92 C-85.62833663 88.18069828 -86.31000458 85.11720994 -86.5 80 C-86.31000458 74.88279006 -85.62833663 71.81930172 -82 68 C-76.37931362 62.95167317 -70.89755008 63.4784199 -63.6015625 63.609375 C-62.41146576 63.61503479 -61.22136902 63.62069458 -59.99520874 63.62652588 C-56.20472514 63.64886549 -52.41519655 63.69906037 -48.625 63.75 C-46.05079493 63.77006799 -43.476575 63.78831823 -40.90234375 63.8046875 C-34.60123822 63.84872255 -28.30068735 63.91561195 -22 64 C-22.00888245 63.33680756 -22.01776489 62.67361511 -22.0269165 61.99032593 C-22.11549956 55.07973866 -22.17578015 48.16931304 -22.21972656 41.25830078 C-22.23982563 38.68010912 -22.26710941 36.10196296 -22.30175781 33.52392578 C-22.35034847 29.81531539 -22.37298658 26.10730844 -22.390625 22.3984375 C-22.41127014 21.24822113 -22.43191528 20.09800476 -22.45318604 18.91293335 C-22.45494774 12.61147807 -22.27883437 8.76395187 -18 4 C-12.72867143 -1.00776214 -6.89190982 -0.92775709 0 0 Z " fill="#000000" transform="translate(262,192)"/>
</svg>
