<?xml version="1.0" encoding="UTF-8"?>
<svg version="1.1" xmlns="http://www.w3.org/2000/svg" width="512" height="512">
<path d="M0 0 C2.5 1.5 2.5 1.5 4 4 C4.71984862 7.926447 5.09453778 10.38398398 2.81785583 13.74536133 C-2.88726269 19.99020041 -8.84558536 25.97248877 -14.83984375 31.9375 C-15.97349143 33.06927864 -17.10691559 34.2012812 -18.24012756 35.33349609 C-21.19863851 38.28822011 -24.16014181 41.23992653 -27.12231445 44.190979 C-30.15434725 47.21271471 -33.18349067 50.23734394 -36.21289062 53.26171875 C-42.13912967 59.17728805 -48.06853842 65.08966729 -54 71 C-53.59007812 71.76441406 -53.18015625 72.52882813 -52.7578125 73.31640625 C-48.47521803 81.83036799 -46.72461046 89.44785457 -46 99 C-45.92602745 99.91830975 -45.8520549 100.83661949 -45.77584076 101.78275681 C-45.13184493 109.88053228 -44.58878634 117.98420037 -44.0546875 126.08984375 C-43.87838951 128.72377373 -43.70188209 131.3576897 -43.525177 133.99159241 C-43.15669401 139.49748376 -42.7927803 145.00366431 -42.43115234 150.51000977 C-42.0174908 156.80708194 -41.59437738 163.10346822 -41.16657627 169.39959425 C-40.79555313 174.86566385 -40.43088618 180.33213457 -40.07092297 185.79894358 C-39.85764184 189.0369673 -39.64146278 192.27474528 -39.42043686 195.5122509 C-38.56928642 208.0257393 -37.83171425 220.53704507 -37.64501953 233.08032227 C-37.60422429 234.4960863 -37.60422429 234.4960863 -37.5626049 235.94045162 C-37.48217828 253.81647678 -48.78503427 265.71176349 -60.60622978 277.74045086 C-62.26437867 279.40785817 -63.92513843 281.07267201 -65.58810425 282.73527527 C-66.51091568 283.66176339 -67.43372711 284.58825151 -68.38450253 285.54281503 C-70.91747176 288.08567957 -73.45347227 290.62550102 -75.99005675 293.16475856 C-78.73624553 295.91488734 -81.4796125 298.66782886 -84.22341919 301.42033386 C-90.83116208 308.04772551 -97.44364887 314.67037389 -104.05676287 321.29240534 C-107.17771007 324.41774967 -110.2981741 327.54357633 -113.41870499 330.66933632 C-123.80025522 341.06787813 -134.18305291 351.46517198 -144.56947136 361.85885143 C-147.25709853 364.54838816 -149.94472028 367.2379303 -152.63232422 369.92749023 C-153.30022823 370.59587798 -153.96813224 371.26426573 -154.65627576 371.95290766 C-165.48658218 382.79152272 -176.30833526 393.63863607 -187.12656103 404.48930772 C-198.25340932 415.64925352 -209.38779908 426.80162986 -220.52961171 437.94663602 C-226.77734752 444.19653312 -233.02177654 450.44965643 -239.25777817 456.71126366 C-244.56482516 462.04005342 -249.87869515 467.36191997 -255.20147644 472.67499515 C-257.91375705 475.3827431 -260.62276077 478.09356128 -263.32302094 480.81330109 C-266.25714859 483.76841151 -269.20672708 486.70761627 -272.15792847 489.64567566 C-273.41968944 490.9238905 -273.41968944 490.9238905 -274.70694053 492.22792786 C-285.74004426 503.1432192 -297.86889279 510.30990622 -313.625 510.4375 C-336.67127131 510.09776399 -350.12219143 494.02492839 -365.35058594 478.82641602 C-366.77069984 477.41258033 -368.19099821 475.99892991 -369.61146545 474.58544922 C-374.23930216 469.97847406 -378.8619661 465.36632628 -383.484375 460.75390625 C-385.08339547 459.15893847 -386.68244808 457.56400292 -388.28153229 455.96909904 C-395.78908003 448.48055461 -403.29424745 440.98963465 -410.79647899 433.49576432 C-419.43392923 424.86810263 -428.07961255 416.24880166 -436.73231101 407.63643318 C-443.439385 400.95954422 -450.13874056 394.27497343 -456.83239388 387.58463043 C-460.82267521 383.59669446 -464.81616328 379.6121024 -468.81786346 375.63562202 C-472.5794275 371.89738891 -476.33129382 368.14968518 -480.07607841 364.39464569 C-481.44718808 363.02304199 -482.82169109 361.65482023 -484.19991493 360.29036522 C-491.16359329 353.39235468 -497.64773304 346.92408029 -502 338 C-502.32095013 337.34707757 -502.64190025 336.69415514 -502.97257614 336.02144718 C-507.57078429 325.98140512 -507.83466188 311.66046376 -504.03125 301.25390625 C-498.17686044 288.45851694 -488.1929289 279.04362724 -478.36720276 269.22003174 C-477.43960221 268.2887545 -476.51200166 267.35747726 -475.556292 266.3979795 C-473.00999097 263.84178239 -470.46065792 261.28862905 -467.91074121 258.7360394 C-465.15025637 255.97161485 -462.39259343 253.20437739 -459.63449097 250.43757629 C-452.99264103 243.77607779 -446.34604715 237.1193226 -439.69882646 230.463184 C-436.56230914 227.32226989 -433.42627517 224.18087325 -430.29017448 221.03954315 C-419.85800952 210.59038736 -409.42459775 200.14247886 -398.98756504 189.69818497 C-396.2868665 186.99557686 -393.58617338 184.29296334 -390.88549805 181.59033203 C-390.21434111 180.91869136 -389.54318418 180.24705068 -388.85168915 179.55505726 C-377.96574283 168.66080017 -367.08835058 157.75804374 -356.21448077 146.85173407 C-345.032261 135.63642819 -333.84251056 124.42868084 -322.64533275 113.22830844 C-316.36577132 106.94658477 -310.08952304 100.66162808 -303.8216877 94.36820221 C-298.48825392 89.01304135 -293.14801638 83.66478392 -287.79885239 78.32533368 C-285.07251684 75.60353518 -282.34947498 72.87864859 -279.635149 70.14486885 C-276.68751451 67.17629177 -273.72447596 64.22357257 -270.75978088 61.27203369 C-269.48781423 59.98361317 -269.48781423 59.98361317 -268.19015127 58.66916394 C-258.23707255 48.82216801 -246.95493023 41.83024562 -232.70140934 41.77134514 C-231.76539104 41.77864206 -230.82937273 41.78593899 -229.86499023 41.79345703 C-228.86196334 41.79804995 -227.85893644 41.80264286 -226.82551479 41.80737495 C-214.13975404 41.93694355 -201.50042604 42.81666892 -188.84765625 43.6796875 C-186.20604224 43.85478599 -183.56439876 44.02937496 -180.92271423 44.20339966 C-175.43045714 44.56640552 -169.93862136 44.93529616 -164.44702148 45.30810547 C-158.14609977 45.73580206 -151.84464607 46.15479778 -145.54282576 46.56902874 C-139.40707278 46.97247946 -133.27169712 47.38138083 -127.1364727 47.79278946 C-124.55685892 47.96540762 -121.97716483 48.13683042 -119.39738655 48.3069725 C-111.59416025 48.82361221 -103.79610186 49.38536909 -96 50 C-94.75959017 50.09017269 -94.75959017 50.09017269 -93.49412155 50.18216705 C-83.54103156 50.93714139 -75.74012654 53.24082151 -67 58 C-66.29034088 57.28812027 -65.58068176 56.57624054 -64.84951782 55.8427887 C-58.17161912 49.14464603 -51.49110255 42.44912433 -44.80799294 35.75618076 C-41.37196906 32.31493127 -37.93688449 28.87275482 -34.50390625 25.4284668 C-31.19282698 22.10654732 -27.87933335 18.78705409 -24.56412888 15.46925163 C-23.29774483 14.20101539 -22.03224337 12.93189724 -20.76762772 11.66189766 C-19.00054895 9.88759347 -17.23039966 8.11640936 -15.45947266 6.34594727 C-14.93367111 5.81655045 -14.40786957 5.28715363 -13.86613464 4.74171448 C-9.42995017 0.31817267 -6.32008588 -0.86182989 0 0 Z M-264.86935425 80.72218323 C-265.81951173 81.6690308 -266.76987785 82.61566904 -267.72043145 83.56211895 C-270.30329368 86.13508359 -272.88311082 88.71108171 -275.46236467 91.28766286 C-278.25538079 94.07673983 -281.0512101 96.8629947 -283.84660339 99.64968872 C-290.57631562 106.35975274 -297.30128443 113.07456078 -304.02563733 119.78999487 C-307.197691 122.95765245 -310.37022761 126.12482626 -313.54269791 129.29206657 C-324.09308169 139.825461 -334.64221946 150.36010095 -345.18774223 160.89836216 C-347.91649311 163.62520344 -350.64524939 166.35203932 -353.37402344 169.07885742 C-354.05216996 169.75652021 -354.73031649 170.43418299 -355.42901291 171.13238101 C-366.43455402 182.12960717 -377.44859653 193.11827784 -388.46618234 204.10343564 C-399.79220855 215.39639817 -411.11069777 226.69687016 -422.42180264 238.00477833 C-428.76717945 244.34799102 -435.11580265 250.68787807 -441.47286606 257.01938057 C-446.88076937 262.40558766 -452.28180822 267.79856064 -457.67400865 273.20048995 C-460.42390831 275.95493535 -463.17693119 278.70605403 -465.93879128 281.44851112 C-468.46879623 283.96089458 -470.98932465 286.48240241 -473.50275101 289.01136815 C-474.84070866 290.35282585 -476.18849631 291.68445721 -477.53665245 293.01566511 C-484.53171431 300.08580423 -489.08067923 306.82578289 -489.3125 317.0625 C-489.14796579 326.98939709 -486.5023134 332.74207283 -479.6960907 339.9344635 C-479.16821951 340.49876857 -478.64034831 341.06307364 -478.09648103 341.64447886 C-471.89481459 348.23679752 -465.50934002 354.6465665 -459.11254883 361.04858398 C-457.76560655 362.40016939 -456.41885632 363.7519462 -455.07228088 365.10389709 C-451.45514993 368.73399537 -447.83482414 372.36088962 -444.21344209 375.98674655 C-441.94545342 378.25768665 -439.67804428 380.52920387 -437.41080284 382.80088997 C-430.29947411 389.92584142 -423.18618515 397.04882701 -416.0699833 404.1689114 C-407.88485838 412.35852881 -399.70634116 420.55467095 -391.5334242 428.7564711 C-385.18935929 435.12217071 -378.83952353 441.48207612 -372.48530024 447.83763558 C-368.70051134 451.62346959 -364.91816291 455.41166552 -361.14182472 459.20593071 C-357.59509249 462.76917848 -354.04122306 466.32515158 -350.48184776 469.87576866 C-349.18165528 471.17519312 -347.88399764 472.47715997 -346.5891571 473.78191757 C-332.56851946 488.13950854 -332.56851946 488.13950854 -313.6875 493.375 C-298.83953502 493.02922547 -290.16070273 482.31094494 -280.33319092 472.47363281 C-279.38063873 471.52367002 -278.42787414 470.57392016 -277.47491765 469.62436295 C-274.87611542 467.03356548 -272.28039695 464.43969812 -269.68522358 461.84526634 C-266.87856524 459.04046982 -264.06906507 456.23852215 -261.25997925 453.43615723 C-255.12951627 447.31922757 -249.00278873 441.19856578 -242.87688351 435.07707214 C-239.05007988 431.25303717 -235.22254208 427.42973763 -231.39487457 423.60656738 C-220.78992808 413.01380274 -210.1859209 402.42009978 -199.58536911 391.82293701 C-198.90810574 391.1458932 -198.23084236 390.4688494 -197.53305586 389.77128911 C-196.85422446 389.09267599 -196.17539306 388.41406287 -195.47599101 387.71488571 C-194.10053201 386.33987017 -192.72507147 384.96485619 -191.34960938 383.58984375 C-190.66734123 382.90779704 -189.98507309 382.22575032 -189.28213015 381.52303553 C-178.21364539 370.45850337 -167.13841686 359.40074781 -156.06028327 348.34587717 C-144.67741394 336.98671764 -133.30017489 325.62194433 -121.92857099 314.25150681 C-115.54720335 307.87105568 -109.16344186 301.4930413 -102.77346039 295.12121582 C-97.33626101 289.69941176 -91.90422281 284.27250269 -86.47884795 278.83886528 C-83.71150755 276.06761757 -80.94180265 273.29884751 -78.16550064 270.53657532 C-75.62279984 268.00660683 -73.08715688 265.46977878 -70.55689135 262.92737532 C-69.20921736 261.57681776 -67.85416654 260.23363363 -66.49884486 258.89075089 C-58.01914281 250.34156473 -54.80352751 244.11474858 -54.83251953 232.00830078 C-54.83429262 231.08858049 -54.83606571 230.16886021 -54.83789253 229.22126961 C-54.93944299 216.74474343 -55.83954808 204.31124189 -56.6796875 191.8671875 C-56.85467779 189.21073013 -57.02924719 186.55424774 -57.20339966 183.8977356 C-57.56672233 178.37256937 -57.93569061 172.84780253 -58.30810547 167.32324219 C-58.73645303 160.96776768 -59.15519581 154.61171333 -59.56902874 148.25527847 C-59.97112672 142.08311528 -60.38042221 135.91144843 -60.79278946 129.73996353 C-60.96603885 127.13672074 -61.13746241 124.53335574 -61.3069725 121.92986679 C-61.54467158 118.29378353 -61.79056701 114.65834206 -62.03857422 111.02294922 C-62.10618958 109.96404984 -62.17380493 108.90515045 -62.24346924 107.81416321 C-62.92800221 95.47937829 -62.92800221 95.47937829 -67 84 C-71.68567297 87.92522842 -76.15774203 91.99454899 -80.50195312 96.29321289 C-81.10930298 96.89077896 -81.71665283 97.48834503 -82.34240723 98.10401917 C-84.32511895 100.0571232 -86.3038183 102.01420714 -88.28125 103.97265625 C-88.9600975 104.64493193 -89.63894501 105.3172076 -90.33836365 106.00985527 C-93.91978019 109.55885579 -97.4972378 113.11180122 -101.07226562 116.66723633 C-104.03038613 119.60744519 -106.99681777 122.53887373 -109.97070312 125.46313477 C-113.57110986 129.00355625 -117.15676284 132.55829198 -120.73216248 136.12396049 C-122.09547904 137.4786998 -123.46393737 138.82828482 -124.83753967 140.17259407 C-126.75034998 142.04673269 -128.64360733 143.93867992 -130.53320312 145.83618164 C-131.10554688 146.38852478 -131.67789062 146.94086792 -132.26757812 147.50994873 C-134.01818409 149.22447943 -134.01818409 149.22447943 -136 152 C-136.03777863 154.70928708 -136.03777863 154.70928708 -135 157 C-134.62681641 158.25876953 -134.62681641 158.25876953 -134.24609375 159.54296875 C-133.84583984 160.85201172 -133.84583984 160.85201172 -133.4375 162.1875 C-130.6575219 172.49543859 -131.82773662 181.14950835 -136 191 C-140.90516229 199.51414179 -148.61047844 205.379813 -157.9140625 208.46875 C-168.83629672 211.25044261 -178.92475411 209.72566758 -188.78515625 204.3359375 C-196.63145549 199.60324907 -200.63905823 193.28401253 -204.3125 185.0625 C-207.03930694 172.91581452 -206.13575168 162.35021098 -199.765625 151.51171875 C-194.11398228 143.47188188 -185.67364254 138.36233142 -176.11328125 136.3203125 C-167.97066221 135.08612625 -161.61744163 136.45496366 -153.8828125 139.22265625 C-150.8507541 140.04024381 -149.87352061 140.0228573 -147 139 C-145.40891025 137.84642912 -145.40891025 137.84642912 -143.97540283 136.33616638 C-143.40615585 135.7710434 -142.83690887 135.20592041 -142.25041199 134.62367249 C-141.63829361 134.00076828 -141.02617523 133.37786407 -140.39550781 132.73608398 C-139.74143448 132.08244873 -139.08736115 131.42881348 -138.41346741 130.75537109 C-136.25283342 128.59264674 -134.10301996 126.41948941 -131.953125 124.24609375 C-130.45734012 122.74471383 -128.96089162 121.2439948 -127.46380615 119.74391174 C-123.52477054 115.79342026 -119.5948268 111.83400252 -115.66668701 107.87268066 C-111.65692476 103.83223378 -107.63865949 99.80026315 -103.62109375 95.76757812 C-95.73903403 87.85334112 -87.86654995 79.92965139 -80 72 C-80.8555245 69.75637361 -80.8555245 69.75637361 -83.41677856 68.93856812 C-88.04660687 67.7258579 -92.56879862 67.34298657 -97.33154297 66.98291016 C-98.34173429 66.90106791 -99.35192562 66.81922565 -100.39272881 66.73490334 C-103.59445212 66.47956893 -106.79689436 66.23732836 -110 66 C-110.99943886 65.92581596 -111.99887772 65.85163193 -113.0286026 65.77519989 C-120.2489558 65.24627516 -127.47172917 64.7559421 -134.6953125 64.2734375 C-135.81746029 64.19804371 -136.93960808 64.12264992 -138.09576035 64.04497147 C-144.02021765 63.64693079 -149.94484027 63.25147553 -155.86962891 62.85839844 C-161.91515445 62.45683671 -167.96006116 62.04663395 -174.00486946 61.63443565 C-178.72689028 61.31399388 -183.44931769 60.99988085 -188.17187119 60.687397 C-190.39870467 60.53900909 -192.62538973 60.38837288 -194.85190201 60.23524094 C-205.73739204 59.48871583 -216.61443921 58.8552831 -227.52685547 58.72119141 C-228.36755144 58.7015502 -229.20824741 58.68190899 -230.07441902 58.66167259 C-245.76839023 58.62257554 -254.44882027 70.29941318 -264.86935425 80.72218323 Z M-184.93359375 159.01953125 C-188.59262117 164.02985417 -190.44226026 168.76520905 -190 175 C-189.00827376 181.0730452 -186.57866554 185.43261306 -182.015625 189.5546875 C-177.24511938 192.97539889 -172.28462155 194.32204456 -166.4375 194 C-160.7021386 193.04911111 -156.07733074 190.59795209 -152.42578125 186.03125 C-148.71795446 180.336708 -147.62584369 175.85953228 -148 169 C-148.66 168.01 -149.32 167.02 -150 166 C-150.50789063 166.49371094 -151.01578125 166.98742187 -151.5390625 167.49609375 C-154.65929184 170.40012743 -157.13146094 172.6934568 -161.1875 174.125 C-164.76823971 173.96585601 -166.34297966 173.42927574 -169 171 C-170.0625 167.6875 -170.0625 167.6875 -170 164 C-168.3125 160.875 -168.3125 160.875 -166 158 C-165.2575 157.05125 -164.515 156.1025 -163.75 155.125 C-163.1725 154.42375 -162.595 153.7225 -162 153 C-170.53947205 150.15350932 -178.72367034 152.53361124 -184.93359375 159.01953125 Z " fill="#000000" transform="translate(507,1)"/>
<path d="M0 0 C4.29269142 3.57740355 8.20358113 7.53688782 12.15010643 11.48743629 C13.11813825 12.44947097 14.08657442 13.41109891 15.05537987 14.37235451 C17.66536876 16.96480306 20.26895939 19.56358392 22.8708322 22.16417527 C24.50067408 23.79258888 26.1319347 25.41956734 27.76370239 27.04605103 C33.46737863 32.731271 39.16591311 38.42158614 44.85957909 44.11683083 C50.15029411 49.40874806 55.45207309 54.68939767 60.75914353 59.96490794 C65.33127961 64.51082925 69.89560667 69.0644932 74.45401603 73.62417859 C77.1696786 76.34034899 79.88829664 79.05338237 82.61483383 81.75864029 C85.17899547 84.30333 87.73323156 86.85759204 90.28042412 89.41926384 C91.65276597 90.79466727 93.03493075 92.16024818 94.41745567 93.52541542 C101.90655764 101.09036539 106.76303704 107.8063955 107.48335838 118.61121559 C107.22810722 132.19057723 97.5051436 140.88901775 88.49947166 149.88562965 C87.52596224 150.86513591 86.55285966 151.84504666 85.58012962 152.82532692 C82.95675797 155.46623976 80.32705275 158.10075388 77.69553804 160.73355007 C76.04837102 162.38214505 74.40263892 164.03215869 72.75740242 165.68268013 C67.00849609 171.45004136 61.25449568 177.21226244 55.49556541 182.96961403 C50.14114438 188.32283215 44.79799709 193.68712296 39.45997632 199.05669045 C34.86225592 203.68060457 30.25681402 208.29673155 25.64533985 212.90692878 C22.89734345 215.65441683 20.15249787 218.40487638 17.41539955 221.16322517 C14.84196881 223.75609273 12.25901087 226.33908354 9.6686039 228.91498756 C8.2751124 230.30540953 6.89146334 231.7056742 5.50819969 233.10627174 C-1.50931299 240.05401219 -8.27704566 244.91455673 -18.45414162 245.11121559 C-33.87945071 244.81761527 -42.46671748 233.30619017 -52.74271584 223.06214333 C-53.6931791 222.11796733 -54.64382247 221.17397262 -55.59462929 220.23014259 C-58.67366737 217.17184457 -61.74764529 214.10848692 -64.82132912 211.04480934 C-65.88796073 209.98223386 -66.95462279 208.91968895 -68.02131462 207.85717392 C-73.02681721 202.87064137 -78.02996057 197.88175669 -83.030177 192.88992351 C-88.77774173 187.15215951 -94.53352428 181.42280455 -100.29629123 175.70031017 C-104.77151076 171.25528608 -109.23899264 166.8025792 -113.70079434 162.34408718 C-116.35745737 159.68976662 -119.01727566 157.03880762 -121.68536949 154.39597321 C-124.65705206 151.4519846 -127.61254549 148.49223618 -130.56693459 145.53089333 C-131.44386467 144.6667733 -132.32079475 143.80265327 -133.22429848 142.91234779 C-140.07326229 136.00446825 -144.76972583 129.23523104 -145.07914162 119.23621559 C-144.86331474 104.55998768 -133.7595242 95.70664874 -124.10282326 86.02039528 C-123.1490872 85.06037789 -122.19553517 84.10017766 -121.24215126 83.13981056 C-118.14055371 80.01739195 -115.03382147 76.90010835 -111.92679787 73.78309059 C-110.85122461 72.70346341 -109.775683 71.6238047 -108.70017242 70.54411507 C-103.65063995 65.47558979 -98.59873996 60.40943911 -93.54388815 55.34621882 C-87.72855885 49.52109882 -81.92162489 43.68777268 -76.12159258 37.84742236 C-71.62140843 33.31704106 -67.11353967 28.7943986 -62.59988683 24.27743649 C-59.91088501 21.58609111 -57.22524941 18.89158306 -54.54772568 16.18881416 C-52.03083478 13.64857008 -49.50450151 11.11810511 -46.97079086 8.59464073 C-45.60828856 7.23286597 -44.25567456 5.86121968 -42.90345192 4.48923683 C-30.11113541 -8.19547105 -14.78382393 -11.39927959 0 0 Z M-37.4180088 23.14026833 C-38.36919966 24.08902761 -39.32103551 25.03714062 -40.2734623 25.98465919 C-42.84415397 28.54599014 -45.40540137 31.11657303 -47.96472645 33.68925548 C-50.65042355 36.38631445 -53.34387639 39.07560888 -56.0362339 41.76601601 C-60.55364547 46.28254632 -65.06505614 50.80500223 -69.57279396 55.33118629 C-74.77939047 60.55896702 -79.99477997 65.77784468 -85.21509433 70.9919247 C-90.24575728 76.01688803 -95.27072238 81.04751059 -100.29292488 86.0809288 C-102.42667247 88.21931247 -104.56228222 90.35581029 -106.69940376 92.49082184 C-109.21572314 95.00525393 -111.72697197 97.52464493 -114.23443222 100.04791069 C-115.59144737 101.41117254 -116.9533468 102.76956705 -118.31539345 104.1278019 C-119.12557426 104.94506752 -119.93575508 105.76233315 -120.77048683 106.6043644 C-121.8256682 107.66262507 -121.8256682 107.66262507 -122.90216637 108.74226475 C-125.67982878 111.89904043 -127.57996891 114.60784168 -128.20414162 118.79871559 C-127.08344625 126.64358319 -119.71601125 132.19475334 -114.37992287 137.5067234 C-113.41990395 138.46945566 -112.4603103 139.43261216 -111.50110817 140.39615822 C-108.90664059 142.9997088 -106.30592855 145.59693515 -103.70374107 148.19276714 C-100.9773209 150.91410904 -98.25580046 153.64034402 -95.53348732 156.36579323 C-90.96407979 160.93883384 -86.39048363 165.50765344 -81.81449318 170.07410622 C-76.52567294 175.35203016 -71.24411366 180.63713795 -65.96624279 185.92600942 C-61.42969073 190.47163757 -56.88925266 195.01335651 -52.34554386 199.55183101 C-49.63378627 202.26047236 -46.92339393 204.9704427 -44.21650124 207.68394661 C-41.67324959 210.23297619 -39.12515392 212.77706222 -36.57324028 215.31741905 C-35.19186508 216.69489002 -33.81540705 218.07728657 -32.43909645 219.45981789 C-31.61479134 220.27848335 -30.79048622 221.09714882 -29.94120216 221.94062233 C-29.22739891 222.65367153 -28.51359566 223.36672073 -27.778162 224.10137749 C-24.96738032 226.56047298 -22.68157954 227.69486324 -19.01664162 228.36121559 C-10.62589783 227.07033193 -3.91301811 218.29884961 1.81465721 212.55457497 C2.73759575 211.63674736 3.66053429 210.71891975 4.61144066 209.77327919 C7.12203543 207.27597341 9.62629353 204.77240687 12.12897897 202.26717758 C14.22474569 200.1703353 16.32349447 198.07649006 18.42218608 195.98257589 C23.37289718 191.04292272 28.3183074 186.09800667 33.26045799 181.14978981 C38.3505374 176.05365879 43.44975448 170.96680317 48.55347806 165.88433981 C52.94718478 161.50826051 57.33505016 157.12638369 61.71832484 152.73985529 C64.33123771 150.12513293 66.94630633 147.51266482 69.56707764 144.90581703 C72.48624264 142.00158593 75.39313257 139.08536025 78.29903221 136.16785622 C79.16399818 135.31053398 80.02896416 134.45321175 80.92014122 133.56991005 C87.8362687 126.7316861 87.8362687 126.7316861 90.51195335 117.62583351 C88.49105068 111.67560955 84.17325873 107.96578447 79.77583885 103.62732887 C78.77103563 102.61438983 77.76751208 101.60018004 76.76517296 100.58480263 C74.04529968 97.83762162 71.30684243 95.10970542 68.56378889 92.38569307 C65.69261892 89.52973668 62.83614308 86.6591436 59.97728539 83.79087257 C55.17429659 78.97697454 50.35881068 74.17585028 45.53609276 69.3817234 C39.96424584 63.84252878 34.41434411 58.28204959 28.87534797 52.71002018 C24.11516595 47.9225914 19.3433669 43.14697826 14.56170189 38.38100612 C11.70756566 35.53621371 8.85761353 32.6875475 6.01808357 29.82816887 C3.34752889 27.14025414 0.66266902 24.46749452 -2.03383255 21.80561829 C-3.01976803 20.82760174 -4.0006604 19.84447028 -4.97599411 18.85588074 C-10.53331892 13.16054549 -10.53331892 13.16054549 -17.46875954 9.52012062 C-26.17070107 10.42014931 -31.5695542 17.24084812 -37.4180088 23.14026833 Z " fill="#000000" transform="translate(226.7666416168213,185.13878440856934)"/>
<path d="M0 0 C2.5 1.5 2.5 1.5 4 4 C4.81183054 8.42816657 4.99021991 10.55521263 2.42578125 14.296875 C0.68671577 16.28639413 -1.09348843 18.17130523 -3 20 C-1.5847237 23.2236849 0.15904231 25.32117238 2.625 27.8125 C5.23398673 30.73739744 5.95697817 31.76533547 6.6875 35.75 C5.87641512 39.58421942 5.25474071 40.83017286 2 43 C-1.25 44.1875 -1.25 44.1875 -5 44 C-8.09025234 42.09830625 -10.48489225 39.59638592 -13 37 C-14.7053331 35.24707621 -16.41376013 33.49715795 -18.125 31.75 C-18.91132813 30.91984375 -19.69765625 30.0896875 -20.5078125 29.234375 C-24.31176072 25.82393867 -27.40877555 23.97208378 -32.5625 24.0625 C-36.29811554 25.08130424 -38.2400376 26.32121297 -41 29 C-42.81356479 32.62712958 -42.81804937 36.12713689 -42 40 C-40.18844733 43.02475652 -38.17288563 45.69130149 -35.9453125 48.421875 C-31.27830214 54.60706945 -30.69021608 61.79390907 -31.140625 69.36328125 C-32.36686932 76.86736334 -36.51013671 83.38789021 -42.578125 87.9296875 C-50.80079289 92.95465121 -57.40698558 93.54382168 -67 93 C-69.1953125 92.3046875 -69.1953125 92.3046875 -70.875 91.5625 C-72.421875 91.2840625 -72.421875 91.2840625 -74 91 C-76.17341163 92.62228067 -78.01763023 94.45388549 -79.94921875 96.35546875 C-82.2218679 98.17791693 -83.37189426 98.58604544 -86.25 98.6875 C-90 98 -90 98 -92.5 96.5 C-94.62179425 92.96367625 -94.97738476 89.93786902 -94 86 C-92.27688516 83.0717008 -90.2609603 80.53012224 -88 78 C-88.63808594 77.43152344 -89.27617187 76.86304688 -89.93359375 76.27734375 C-96.67371601 69.97885196 -96.67371601 69.97885196 -98.25 65.25 C-97.97119304 61.62550956 -97.24897561 59.83204336 -95 57 C-91.73952371 55.36976186 -89.62198965 55.5326465 -86 56 C-82.95083574 57.93628364 -80.53083245 60.43851733 -78 63 C-77.03954531 63.96011864 -76.07857823 64.91972489 -75.1171875 65.87890625 C-73.63043122 67.36348608 -72.14824635 68.85118389 -70.68066406 70.35473633 C-67.29266402 73.81022883 -65.51415584 75.15837149 -60.6875 75.3125 C-57.30905697 75.26904736 -56.08567451 75.04921727 -53.0625 73.3125 C-49.915453 69.78399276 -49.02856885 67.48558032 -48.9375 62.75 C-50.2101692 58.25822637 -52.36292598 55.80109572 -55.27734375 52.234375 C-60.11905384 45.9544245 -60.66979375 39.42104439 -60.46875 31.60546875 C-59.407262 23.4408569 -55.81760998 17.04950391 -49.4375 11.875 C-43.39349438 7.54400132 -37.37774905 5.98003316 -30 6 C-27.76509564 6.4294834 -25.53577651 6.88889812 -23.3125 7.375 C-18.78616443 8.28262438 -18.78616443 8.28262438 -14.6875 6.61328125 C-12.95088572 4.82963366 -11.48740385 2.99083284 -10 1 C-6.79158965 -0.60420518 -3.4806013 -0.47462745 0 0 Z " fill="#000000" transform="translate(253,255)"/>
</svg>
